<svg width="29" height="25" viewBox="0 0 29 25" fill="none" xmlns="http://www.w3.org/2000/svg">
<path d="M14.5002 15.5C14.5002 17.5613 14.4259 19.2175 12.5 20.5" stroke="#4B5B98"/>
<path d="M14.5742 9.28271C14.5147 5.83964 14.4434 4.01248 16 3.5" stroke="#4B5B98"/>
<path d="M4 0.5H25C26.933 0.5 28.5 2.067 28.5 4V21C28.5 22.933 26.933 24.5 25 24.5H4C2.067 24.5 0.5 22.933 0.5 21V4C0.5 2.067 2.067 0.5 4 0.5Z" stroke="#4B5B98"/>
<path d="M5 3.5H24C24.8284 3.5 25.5 4.17157 25.5 5V19C25.5 19.8284 24.8284 20.5 24 20.5H5C4.17157 20.5 3.5 19.8284 3.5 19V5C3.5 4.17157 4.17157 3.5 5 3.5Z" stroke="#4B5B98"/>
<path d="M3.5 7.5H10.5V16.5H3.5V7.5Z" stroke="#4B5B98"/>
<path d="M3.5 12.5H10.5V16.5H3.5V12.5Z" stroke="#4B5B98"/>
<path d="M10 9H19M19 15H10" stroke="#4B5B98"/>
<path d="M18.5 12.5H25.5V16.5H18.5V12.5Z" stroke="#4B5B98"/>
<path d="M18.5 7.5H25.5V16.5H18.5V7.5Z" stroke="#4B5B98"/>
</svg>
