<svg width="20" height="19" viewBox="0 0 20 19" fill="none" xmlns="http://www.w3.org/2000/svg">
<path d="M5.5 4.75C5.086 4.75 4.75 5.0858 4.75 5.5C4.75 5.9142 5.086 6.25 5.5 6.25H10C10.414 6.25 10.75 5.9142 10.75 5.5C10.75 5.0858 10.414 4.75 10 4.75H5.5Z" fill="#8B8B94"/>
<path d="M16.5 9.75C16.5 10.1642 16.164 10.5 15.75 10.5C15.336 10.5 15 10.1642 15 9.75C15 9.3358 15.336 9 15.75 9C16.164 9 16.5 9.3358 16.5 9.75Z" fill="#8B8B94"/>
<path fill-rule="evenodd" clip-rule="evenodd" d="M0 6C0 2.6863 2.686 0 6 0H14C17.314 0 20 2.6863 20 6V13C20 16.3137 17.314 19 14 19H6C2.686 19 0 16.3137 0 13V6ZM6 1.5H14C16.485 1.5 18.5 3.5147 18.5 6V6.1846H15.987C13.897 6.1846 12.204 7.8781 12.204 9.9673C12.204 12.0564 13.897 13.75 15.987 13.75H18.438C18.081 15.8783 16.23 17.5 14 17.5H6C3.515 17.5 1.5 15.4853 1.5 13V6C1.5 3.5147 3.515 1.5 6 1.5ZM18.5 12.25V7.6846H15.987C14.726 7.6846 13.704 8.7066 13.704 9.9673C13.704 11.228 14.726 12.25 15.987 12.25H18.5Z" fill="#8B8B94"/>
</svg>
