<svg width="335" height="298" viewBox="0 0 335 298" fill="none" xmlns="http://www.w3.org/2000/svg">
<path d="M48 267C48 284.121 108.889 298 184 298C211.397 298 236.903 296.153 258.251 292.976C259.843 292.739 261.458 292.751 263.067 292.807C269.044 293.016 281.504 292.249 287.825 291.769C295.6 291.26 320 274.791 320 267C320 249.879 259.111 236 184 236C108.889 236 48 249.879 48 267Z" fill="#1E1E2D"/>
<circle cx="19.2031" cy="194.195" r="19.2031" fill="white"/>
<path fill-rule="evenodd" clip-rule="evenodd" d="M18.5341 190.287C18.5341 192.134 17.0372 193.631 15.1906 193.631C13.3441 193.631 11.8472 192.134 11.8472 190.287C11.8472 188.441 13.3441 186.944 15.1906 186.944C17.0372 186.944 18.5341 188.441 18.5341 190.287ZM16.9113 190.287C16.9113 191.238 16.1409 192.008 15.1906 192.008C14.2403 192.008 13.47 191.238 13.47 190.287C13.47 189.337 14.2403 188.567 15.1906 188.567C16.1409 188.567 16.9113 189.337 16.9113 190.287Z" fill="#1E1E2D"/>
<path d="M14.8563 201.655L21.376 187.946C21.7773 187.144 23.382 187.779 22.7133 189.117L16.528 202.49C15.5249 204.329 14.1876 202.992 14.8563 201.655Z" fill="#1E1E2D"/>
<path fill-rule="evenodd" clip-rule="evenodd" d="M23.4855 203.867C25.3321 203.867 26.829 202.37 26.829 200.524C26.829 198.677 25.3321 197.18 23.4855 197.18C21.639 197.18 20.1421 198.677 20.1421 200.524C20.1421 202.37 21.639 203.867 23.4855 203.867ZM23.4855 202.244C24.4358 202.244 25.2062 201.474 25.2062 200.524C25.2062 199.574 24.4358 198.803 23.4855 198.803C22.5352 198.803 21.7649 199.574 21.7649 200.524C21.7649 201.474 22.5352 202.244 23.4855 202.244Z" fill="#1E1E2D"/>
<circle cx="38.4062" cy="36.7834" r="19.2031" fill="white"/>
<path d="M30.0216 26.5056C28.5278 26.5056 27.3169 27.7165 27.3169 29.2103V44.3564C27.3169 45.8501 28.5278 47.061 30.0216 47.061C30.0216 42.0741 32.9752 38.8334 36.8744 38.1648C35.0296 37.6488 33.6802 35.9982 33.6802 34.0417C33.6802 31.6721 35.6595 29.7512 38.1011 29.7512C40.5427 29.7512 42.522 31.6721 42.522 34.0417C42.522 35.9337 41.2602 37.5396 39.5086 38.1101C43.6181 38.6659 46.7904 42.3008 46.7904 47.061C48.2842 47.061 49.4951 45.8501 49.4951 44.3564V29.2103C49.4951 27.7165 48.2842 26.5056 46.7904 26.5056H30.0216Z" fill="#A2A2A7"/>
<circle cx="204.472" cy="19.2031" r="19.2031" fill="white"/>
<path d="M202.077 15.1527C202.088 14.5355 202.691 14.0344 203.536 13.842L203.489 16.4368C202.646 16.0629 202.067 15.6842 202.077 15.1527Z" fill="#1E1E2D"/>
<path d="M205.342 23.4628L205.399 20.3813C206.27 20.803 206.896 21.2849 206.941 22.0053C206.994 22.8452 206.286 23.3291 205.342 23.4628Z" fill="#1E1E2D"/>
<path fill-rule="evenodd" clip-rule="evenodd" d="M196.088 8.65479C194.594 8.65479 193.383 9.86569 193.383 11.3594V26.776C193.383 28.2697 194.594 29.4807 196.088 29.4807H212.857C214.351 29.4807 215.562 28.2697 215.562 26.776V11.3594C215.562 9.86569 214.351 8.65479 212.857 8.65479H196.088ZM205.586 10.1617L203.605 10.1254L203.58 11.4498C201.299 11.7931 199.512 13.4234 199.473 15.5149C199.467 17.8147 201.49 18.7907 203.432 19.5675L203.363 23.2862C202.373 22.9829 201.478 22.3594 201.142 21.4209L198.99 23.2261C200.084 24.7409 201.684 25.61 203.315 25.9096L203.274 28.1556L205.256 28.1919L205.296 25.9969C207.687 25.7652 209.702 24.2945 209.678 21.8505C209.652 19.2584 207.474 18.0701 205.456 17.2337L205.517 13.947C206.285 14.1929 207.055 14.6921 207.675 15.5285L209.553 13.7183C208.319 12.4176 206.918 11.7172 205.562 11.4783L205.586 10.1617Z" fill="#1E1E2D"/>
<path d="M60.4834 269.663L73.0601 251.001C75.2238 247.484 90.7756 246.565 92.3983 246.673H250.35C255.985 246.853 267.363 247.836 267.795 250.325C273.34 254.226 262.622 261.27 249.269 274.802C246.699 276.019 234.393 276.289 227.496 276.289H79.1454C67.9306 276.289 62.1 275.081 60.6463 273.753C60.378 273.508 60.325 273.128 60.325 272.765V270.339C60.2899 270.111 60.3373 269.882 60.4834 269.663Z" fill="#0066FF"/>
<path d="M73.0601 251.001L60.4834 269.663C60.3373 269.882 60.2899 270.111 60.325 270.339C60.4201 270.956 61.119 271.567 62.1062 271.962C66.2983 273.638 74.1419 273.855 81.174 273.855H228.307C231.959 273.855 244.941 273.855 249.269 271.962C250.377 271.477 261.631 259.737 267.356 253.697C268.167 252.841 267.912 250.992 267.795 250.325C267.363 247.836 255.985 246.853 250.35 246.673H92.3983C90.7756 246.565 75.2238 247.484 73.0601 251.001Z" fill="#054FBC"/>
<path d="M63.7288 268.851L76.3054 251.001C77.6579 248.837 84.2843 247.485 92.5335 247.214H248.322C253.866 247.214 268.742 248.431 266.173 252.082L250.35 268.446C245.752 273.044 234.258 272.097 227.631 272.097H208.158H81.3089C71.5724 272.097 69.6793 272.097 65.622 271.015C63.5934 270.474 63.188 269.663 63.7288 268.851Z" fill="white"/>
<path d="M196.237 260.211L174.551 248.23C174.067 247.963 173.459 248.138 173.192 248.622L168.619 256.899C168.352 257.383 168.527 257.991 169.011 258.258L190.697 270.239C191.181 270.506 191.789 270.331 192.056 269.847L196.629 261.57C196.896 261.087 196.721 260.478 196.237 260.211Z" fill="white"/>
<path d="M186.711 263.587L187.217 263.692L186.446 265.088L186.808 265.288L187.817 263.461L187.778 263.44L186.873 263.293L186.711 263.587Z" fill="#1E1E2D"/>
<path fill-rule="evenodd" clip-rule="evenodd" d="M188.569 266.032C188.748 265.956 188.906 265.792 189.046 265.54L189.231 265.204C189.364 264.958 189.414 264.741 189.38 264.552C189.348 264.363 189.232 264.214 189.033 264.104C188.834 263.994 188.645 263.976 188.466 264.049C188.288 264.123 188.129 264.287 187.988 264.542L187.803 264.878C187.67 265.124 187.62 265.341 187.653 265.53C187.686 265.72 187.802 265.869 188 265.979C188.202 266.09 188.391 266.108 188.569 266.032ZM189.007 264.607C189.01 264.699 188.971 264.82 188.887 264.971L188.648 265.405C188.567 265.547 188.488 265.641 188.411 265.689C188.333 265.737 188.25 265.736 188.162 265.687C188.072 265.638 188.027 265.566 188.026 265.471C188.026 265.377 188.067 265.255 188.149 265.106L188.394 264.663C188.473 264.525 188.551 264.434 188.627 264.391C188.705 264.348 188.786 264.35 188.871 264.397C188.959 264.445 189.004 264.515 189.007 264.607Z" fill="#1E1E2D"/>
<path fill-rule="evenodd" clip-rule="evenodd" d="M190.042 266.846C190.221 266.77 190.379 266.606 190.519 266.353L190.704 266.018C190.837 265.772 190.887 265.554 190.853 265.366C190.821 265.177 190.705 265.027 190.506 264.918C190.307 264.808 190.118 264.79 189.94 264.863C189.761 264.937 189.602 265.101 189.461 265.356L189.276 265.691C189.143 265.937 189.093 266.155 189.126 266.344C189.159 266.533 189.275 266.683 189.473 266.793C189.675 266.904 189.864 266.922 190.042 266.846ZM190.48 265.421C190.483 265.513 190.444 265.634 190.36 265.785L190.121 266.219C190.04 266.36 189.961 266.455 189.884 266.503C189.806 266.55 189.723 266.55 189.635 266.501C189.545 266.452 189.5 266.38 189.499 266.285C189.499 266.19 189.54 266.069 189.622 265.92L189.867 265.477C189.946 265.339 190.024 265.248 190.1 265.205C190.178 265.162 190.259 265.164 190.344 265.211C190.432 265.259 190.477 265.329 190.48 265.421Z" fill="#1E1E2D"/>
<path d="M174.711 251.587L175.217 251.692L174.446 253.088L174.808 253.288L175.817 251.461L175.778 251.44L174.873 251.293L174.711 251.587Z" fill="#1E1E2D"/>
<path fill-rule="evenodd" clip-rule="evenodd" d="M176.569 254.032C176.748 253.956 176.906 253.792 177.046 253.54L177.231 253.204C177.364 252.958 177.414 252.741 177.38 252.552C177.348 252.363 177.232 252.214 177.033 252.104C176.834 251.994 176.645 251.976 176.466 252.049C176.288 252.123 176.129 252.287 175.988 252.542L175.803 252.878C175.67 253.124 175.62 253.341 175.653 253.53C175.686 253.72 175.802 253.869 176 253.979C176.202 254.09 176.391 254.108 176.569 254.032ZM177.007 252.607C177.01 252.699 176.971 252.82 176.887 252.971L176.648 253.405C176.567 253.547 176.488 253.641 176.411 253.689C176.333 253.737 176.25 253.736 176.162 253.687C176.072 253.638 176.027 253.566 176.026 253.471C176.026 253.377 176.067 253.255 176.149 253.106L176.394 252.663C176.473 252.525 176.551 252.434 176.627 252.391C176.705 252.348 176.786 252.35 176.871 252.397C176.959 252.445 177.004 252.515 177.007 252.607Z" fill="#1E1E2D"/>
<path fill-rule="evenodd" clip-rule="evenodd" d="M178.042 254.846C178.221 254.77 178.379 254.606 178.519 254.353L178.704 254.018C178.837 253.772 178.887 253.554 178.853 253.366C178.821 253.177 178.705 253.027 178.506 252.918C178.307 252.808 178.118 252.79 177.94 252.863C177.761 252.937 177.602 253.101 177.461 253.356L177.276 253.691C177.143 253.937 177.093 254.155 177.126 254.344C177.159 254.533 177.275 254.683 177.473 254.793C177.675 254.904 177.864 254.922 178.042 254.846ZM178.48 253.421C178.483 253.513 178.444 253.634 178.36 253.785L178.121 254.219C178.04 254.36 177.961 254.455 177.884 254.503C177.806 254.55 177.723 254.55 177.635 254.501C177.545 254.452 177.5 254.38 177.499 254.285C177.499 254.19 177.54 254.069 177.622 253.92L177.867 253.477C177.946 253.339 178.024 253.248 178.1 253.205C178.178 253.162 178.259 253.164 178.344 253.211C178.432 253.259 178.477 253.329 178.48 253.421Z" fill="#1E1E2D"/>
<path d="M195.731 261.681C195.322 261.456 195.075 260.939 195.365 260.414L174.96 249.141C174.851 249.614 174.062 249.939 173.479 249.617L169.582 256.671C170.197 256.935 170.299 257.494 170.058 258.152L190.347 269.361C190.6 269.013 191.147 268.738 191.672 269.028L195.731 261.681Z" stroke="#1E1E2D" stroke-width="2" stroke-linejoin="round"/>
<circle cx="183.706" cy="272.535" r="4.46269" transform="rotate(28.9187 183.706 272.535)" fill="white"/>
<path fill-rule="evenodd" clip-rule="evenodd" d="M183.986 256.029L184.636 256.388L184.397 256.82C184.805 257.137 185.146 257.614 185.327 258.262L184.387 258.532C184.329 258.146 184.161 257.846 183.949 257.63L183.354 258.708C183.876 259.339 184.389 260.115 183.943 260.978C183.523 261.792 182.598 261.926 181.765 261.584L181.367 262.304L180.717 261.945L181.124 261.208C180.636 260.823 180.258 260.255 180.161 259.561L181.19 259.34C181.137 259.71 181.325 260.073 181.6 260.347L182.274 259.127C181.766 258.529 181.267 257.852 181.672 257.091C182.051 256.404 182.929 256.177 183.745 256.463L183.986 256.029ZM183.312 257.248C182.998 257.164 182.71 257.224 182.599 257.427C182.502 257.601 182.628 257.828 182.841 258.1L183.312 257.248ZM182.783 259.741L182.224 260.753C182.56 260.874 182.88 260.837 183.009 260.55C183.121 260.303 182.998 260.034 182.783 259.741Z" fill="#0066FF"/>
<path d="M156.73 250.552L133.727 259.756C133.215 259.961 132.965 260.543 133.17 261.056L136.683 269.836C136.889 270.349 137.471 270.598 137.983 270.393L160.986 261.189C161.499 260.983 161.748 260.401 161.543 259.889L158.03 251.109C157.825 250.596 157.243 250.347 156.73 250.552Z" fill="white"/>
<path d="M153.249 259.358L153.651 259.033L154.243 260.513L154.627 260.359L153.852 258.422L153.811 258.438L153.124 259.046L153.249 259.358Z" fill="#1E1E2D"/>
<path fill-rule="evenodd" clip-rule="evenodd" d="M156.318 259.467C156.372 259.281 156.346 259.054 156.239 258.786L156.096 258.43C155.99 258.172 155.853 257.996 155.686 257.902C155.519 257.808 155.33 257.803 155.119 257.887C154.908 257.972 154.775 258.106 154.718 258.291C154.663 258.476 154.689 258.703 154.797 258.973L154.939 259.329C155.046 259.588 155.183 259.764 155.35 259.859C155.517 259.953 155.706 259.958 155.917 259.874C156.131 259.788 156.264 259.653 156.318 259.467ZM155.492 258.226C155.566 258.281 155.634 258.389 155.698 258.549L155.882 259.009C155.941 259.161 155.965 259.282 155.952 259.373C155.94 259.463 155.887 259.527 155.793 259.564C155.698 259.602 155.614 259.592 155.54 259.533C155.467 259.473 155.399 259.364 155.336 259.206L155.147 258.736C155.091 258.587 155.07 258.469 155.085 258.383C155.1 258.296 155.153 258.234 155.244 258.198C155.337 258.161 155.419 258.17 155.492 258.226Z" fill="#1E1E2D"/>
<path fill-rule="evenodd" clip-rule="evenodd" d="M157.881 258.841C157.935 258.655 157.908 258.429 157.801 258.161L157.659 257.805C157.552 257.547 157.416 257.371 157.249 257.277C157.081 257.183 156.892 257.178 156.682 257.262C156.471 257.346 156.337 257.481 156.281 257.666C156.225 257.851 156.251 258.078 156.359 258.348L156.502 258.704C156.608 258.963 156.745 259.139 156.912 259.233C157.08 259.328 157.269 259.333 157.48 259.249C157.693 259.163 157.827 259.027 157.881 258.841ZM157.055 257.601C157.128 257.656 157.197 257.764 157.261 257.924L157.445 258.384C157.504 258.536 157.527 258.657 157.515 258.747C157.503 258.838 157.45 258.901 157.356 258.939C157.261 258.977 157.177 258.966 157.103 258.908C157.029 258.848 156.961 258.739 156.898 258.581L156.71 258.111C156.653 257.962 156.632 257.844 156.647 257.758C156.663 257.671 156.716 257.609 156.806 257.573C156.899 257.536 156.982 257.545 157.055 257.601Z" fill="#1E1E2D"/>
<path d="M136.249 262.358L136.651 262.033L137.243 263.513L137.627 263.359L136.852 261.422L136.811 261.438L136.124 262.046L136.249 262.358Z" fill="#1E1E2D"/>
<path fill-rule="evenodd" clip-rule="evenodd" d="M139.318 262.467C139.372 262.281 139.346 262.054 139.239 261.786L139.096 261.43C138.99 261.172 138.853 260.996 138.686 260.902C138.519 260.808 138.33 260.803 138.119 260.887C137.908 260.972 137.775 261.106 137.718 261.291C137.663 261.476 137.689 261.703 137.797 261.973L137.939 262.329C138.046 262.588 138.183 262.764 138.35 262.859C138.517 262.953 138.706 262.958 138.917 262.874C139.131 262.788 139.264 262.653 139.318 262.467ZM138.492 261.226C138.566 261.281 138.634 261.389 138.698 261.549L138.882 262.009C138.941 262.161 138.965 262.282 138.952 262.373C138.94 262.463 138.887 262.527 138.793 262.564C138.698 262.602 138.614 262.592 138.54 262.533C138.467 262.473 138.399 262.364 138.336 262.206L138.147 261.736C138.091 261.587 138.07 261.469 138.085 261.383C138.1 261.296 138.153 261.234 138.244 261.198C138.337 261.161 138.419 261.17 138.492 261.226Z" fill="#1E1E2D"/>
<path fill-rule="evenodd" clip-rule="evenodd" d="M140.881 261.841C140.935 261.655 140.908 261.429 140.801 261.161L140.659 260.805C140.552 260.547 140.416 260.371 140.249 260.277C140.081 260.183 139.892 260.178 139.682 260.262C139.471 260.346 139.337 260.481 139.281 260.666C139.225 260.851 139.251 261.078 139.359 261.348L139.502 261.704C139.608 261.963 139.745 262.139 139.912 262.233C140.08 262.328 140.269 262.333 140.48 262.249C140.693 262.163 140.827 262.027 140.881 261.841ZM140.055 260.601C140.128 260.656 140.197 260.764 140.261 260.924L140.445 261.384C140.504 261.536 140.527 261.657 140.515 261.747C140.503 261.838 140.45 261.901 140.356 261.939C140.261 261.977 140.177 261.966 140.103 261.908C140.029 261.848 139.961 261.739 139.898 261.581L139.71 261.111C139.653 260.962 139.632 260.844 139.647 260.758C139.663 260.671 139.716 260.609 139.806 260.573C139.899 260.536 139.982 260.545 140.055 260.601Z" fill="#1E1E2D"/>
<path d="M157.547 251.875C157.115 252.048 156.558 251.912 156.335 251.356L134.691 260.016C134.988 260.4 134.741 261.216 134.122 261.463L137.116 268.946C137.71 268.637 138.207 268.911 138.564 269.515L160.084 260.904C159.975 260.488 160.109 259.89 160.665 259.667L157.547 251.875Z" stroke="#1E1E2D" stroke-width="2" stroke-linejoin="round"/>
<circle cx="148.019" cy="266.146" r="4.46269" transform="rotate(-21.8075 148.019 266.146)" fill="white"/>
<path fill-rule="evenodd" clip-rule="evenodd" d="M145.736 257.39L146.426 257.114L146.609 257.572C147.113 257.457 147.699 257.495 148.314 257.765L147.929 258.664C147.593 258.465 147.255 258.405 146.953 258.432L147.411 259.575C148.23 259.571 149.155 259.664 149.541 260.555C149.905 261.396 149.424 262.197 148.631 262.626L148.937 263.39L148.247 263.665L147.935 262.884C147.328 263.018 146.649 262.951 146.05 262.587L146.531 261.65C146.783 261.925 147.183 262.01 147.569 261.971L147.051 260.676C146.268 260.691 145.427 260.648 145.094 259.853C144.803 259.125 145.183 258.302 145.921 257.851L145.736 257.39ZM146.254 258.684C145.99 258.873 145.855 259.134 145.941 259.349C146.015 259.534 146.27 259.58 146.615 259.587L146.254 258.684ZM147.849 260.671L148.279 261.744C148.585 261.56 148.759 261.29 148.619 261.007C148.498 260.765 148.212 260.69 147.849 260.671Z" fill="#0066FF"/>
<path d="M55.9863 77.9864C55.9863 65.8361 65.8361 55.9863 77.9863 55.9863H269.768C281.919 55.9863 291.768 65.8361 291.768 77.9863V184.163C291.768 196.314 281.919 206.163 269.768 206.163H77.9863C65.836 206.163 55.9863 196.314 55.9863 184.163V77.9864Z" fill="#93BEFF"/>
<path d="M61.9067 85.9933C61.9067 72.7498 72.6343 62.0093 85.8778 61.9933L262.013 61.7808C275.28 61.7648 286.042 72.5146 286.042 85.7808V176.133C286.042 189.376 275.315 200.116 262.071 200.132L85.9357 200.345C72.6696 200.361 61.9067 189.611 61.9067 176.345V85.9933Z" fill="white"/>
<path d="M49.4951 64.0361C49.4951 56.3041 55.7631 50.0361 63.4951 50.0361H106.898C114.63 50.0361 120.898 56.3041 120.898 64.0361V109.026C120.898 116.758 114.63 123.026 106.898 123.026H63.4951C55.7631 123.026 49.4951 116.758 49.4951 109.026V64.0361Z" fill="#232533"/>
<path d="M49.4951 62.2766C49.4951 55.5164 54.9754 50.0361 61.7356 50.0361H108.658C115.418 50.0361 120.898 55.5164 120.898 62.2766H49.4951Z" fill="#0066FF"/>
<circle cx="112.511" cy="56.3831" r="2.04009" fill="#FCFEFD"/>
<circle cx="104.351" cy="56.3831" r="2.04009" fill="#FCFEFD"/>
<circle cx="96.1905" cy="56.3831" r="2.04009" fill="#FCFEFD"/>
<path opacity="0.5" d="M79.1899 72.1526C79.1899 71.5893 79.6466 71.1326 80.21 71.1326H115.798C116.361 71.1326 116.818 71.5893 116.818 72.1526C116.818 72.716 116.361 73.1727 115.798 73.1727H80.21C79.6466 73.1727 79.1899 72.716 79.1899 72.1526Z" fill="#A2A2A7"/>
<path opacity="0.5" d="M79.1899 78.52C79.1899 77.9567 79.6466 77.5 80.21 77.5H115.798C116.361 77.5 116.818 77.9567 116.818 78.52C116.818 79.0834 116.361 79.5401 115.798 79.5401H80.21C79.6466 79.5401 79.1899 79.0834 79.1899 78.52Z" fill="#A2A2A7"/>
<path opacity="0.5" d="M79.1899 84.8877C79.1899 84.3244 79.6466 83.8677 80.21 83.8677H115.798C116.361 83.8677 116.818 84.3244 116.818 84.8877C116.818 85.4511 116.361 85.9078 115.798 85.9078H80.21C79.6466 85.9078 79.1899 85.4511 79.1899 84.8877Z" fill="#A2A2A7"/>
<path d="M53.3486 77.2374C53.3486 71.2283 58.22 66.3569 64.2291 66.3569C70.2382 66.3569 75.1095 71.2283 75.1095 77.2374V79.5042C75.1095 85.5133 70.2382 90.3846 64.2291 90.3846C58.22 90.3846 53.3486 85.5133 53.3486 79.5042V77.2374Z" fill="#FEFFFF"/>
<path d="M64.2293 74.5176C65.6064 74.5176 66.7227 73.4013 66.7227 72.0242C66.7227 70.6471 65.6064 69.5308 64.2293 69.5308C62.8522 69.5308 61.7358 70.6471 61.7358 72.0242C61.7358 73.4013 62.8522 74.5176 64.2293 74.5176Z" fill="#1E1E2D"/>
<path d="M63.0882 76.1042C62.3413 76.1042 61.7358 76.7097 61.7358 77.4566V84.7257C61.7358 85.4725 62.3413 86.078 63.0882 86.078H65.3704C66.1173 86.078 66.7227 85.4725 66.7227 84.7257V77.4566C66.7227 76.7097 66.1173 76.1042 65.3704 76.1042H63.0882Z" fill="#1E1E2D"/>
<rect x="56.9756" y="108.292" width="2.49344" height="5.89358" fill="white"/>
<rect x="64.229" y="110.332" width="2.49344" height="3.85349" fill="white"/>
<rect x="72.1631" y="108.065" width="2.49344" height="6.12026" fill="white"/>
<rect x="79.6431" y="104.892" width="2.49344" height="9.29372" fill="white"/>
<rect x="87.1235" y="101.265" width="2.49344" height="12.9205" fill="white"/>
<rect x="94.6035" y="103.532" width="2.49344" height="10.6538" fill="white"/>
<rect x="102.084" y="100.812" width="2.49344" height="13.3739" fill="white"/>
<rect x="109.564" y="98.7715" width="2.49344" height="15.414" fill="white"/>
<path d="M143.888 86.9438C143.888 78.6596 150.604 71.9438 158.888 71.9438H257.742C266.026 71.9438 272.742 78.6596 272.742 86.9438V153.771C272.742 162.055 266.026 168.771 257.742 168.771H158.888C150.604 168.771 143.888 162.055 143.888 153.771V86.9438Z" fill="#232533"/>
<path d="M143.888 86.0955C143.888 78.2797 150.224 71.9438 158.039 71.9438H258.59C266.406 71.9438 272.742 78.2797 272.742 86.0955H143.888Z" fill="black"/>
<circle cx="234.384" cy="78.6474" r="2.60687" fill="white"/>
<circle cx="245.184" cy="78.6472" r="2.60687" fill="white"/>
<circle cx="255.983" cy="78.6472" r="2.60687" fill="white"/>
<path d="M215.291 115.888C215.291 112.598 217.959 109.93 221.25 109.93H260.725C264.016 109.93 266.684 112.598 266.684 115.888C266.684 119.179 264.016 121.847 260.725 121.847H221.25C217.959 121.847 215.291 119.179 215.291 115.888Z" fill="white"/>
<path d="M215.291 137.135C215.291 133.844 217.959 131.176 221.25 131.176H260.725C264.016 131.176 266.684 133.844 266.684 137.135C266.684 140.425 264.016 143.093 260.725 143.093H221.25C217.959 143.093 215.291 140.425 215.291 137.135Z" fill="white"/>
<path d="M200.98 133.502C202.022 133.869 202.576 135.015 202.133 136.027C200.404 139.983 197.756 143.482 194.398 146.227C190.523 149.394 185.851 151.434 180.894 152.124C175.937 152.814 170.885 152.128 166.292 150.139C161.699 148.151 157.741 144.938 154.852 140.851C151.963 136.764 150.253 131.961 149.911 126.968C149.568 121.974 150.605 116.983 152.909 112.54C155.213 108.097 158.695 104.373 162.973 101.776C166.681 99.5254 170.862 98.1961 175.169 97.8855C176.271 97.806 177.166 98.7102 177.165 99.8148L177.134 123.682C177.133 124.531 177.668 125.289 178.469 125.571L200.98 133.502Z" fill="white"/>
<path d="M194.595 103.934C195.242 103.039 196.497 102.831 197.343 103.542C201.304 106.869 204.249 111.264 205.814 116.223C207.379 121.182 207.49 126.471 206.156 131.468C205.872 132.536 204.724 133.087 203.681 132.725L182.333 125.316C181.067 124.876 180.583 123.341 181.367 122.255L194.595 103.934Z" fill="#0066FF"/>
<path d="M178.463 98.1508C178.463 97.0462 179.36 96.1431 180.461 96.224C184.912 96.5508 189.215 97.9647 192.992 100.341C193.927 100.929 194.114 102.188 193.459 103.078L182.073 118.535C180.928 120.089 178.463 119.279 178.463 117.348V98.1508Z" fill="#93BEFF"/>
<path d="M294.788 103.903C294.11 100.476 294.468 96.2873 294.468 94.4786C294.468 86.2916 306.653 88.2907 306.653 93.5266C306.653 96.0973 306.507 99.6816 305.891 102.761C305.034 107.045 295.8 110.186 294.788 103.903Z" fill="#FEBFAE"/>
<path d="M309.134 84.8491C308.754 90.4657 306.85 96.1775 303.423 97.3199C300.487 98.2983 297.032 98.1594 294.176 94.7497C293.535 93.9847 292.365 90.1463 291.444 85.706C291.819 86.5627 292.78 88.5999 293.617 89.8946C294.664 91.513 297.235 89.5138 299.805 88.7523C302.375 87.9907 305.041 92.8457 306.374 91.037C307.706 89.2282 306.755 88.7521 309.134 84.8491Z" fill="#2B1818"/>
<path d="M298.471 103.222C295.991 102.426 294.943 100.331 294.663 99.5092C294.663 98.6525 292.759 101.223 291.141 109.695C289.846 116.473 292.379 132.955 293.807 140.349H296.567C300.217 128.639 307.553 104.479 307.705 101.508C307.896 97.7957 306.849 96.9389 306.087 98.1765C305.489 99.1487 303.511 101.95 299.894 103.187C299.608 103.282 298.803 103.329 298.471 103.222Z" fill="#F2F2F2"/>
<path d="M296.086 105.903C296.086 105.392 297.837 103.952 298.472 103.222C298.708 103.311 299.506 103.307 299.894 103.188C300.973 103.811 302.604 105.221 302.375 105.983C302.09 106.935 299.792 108.663 299.132 108.663C298.594 108.663 296.086 106.569 296.086 105.903Z" fill="#2240A9"/>
<path d="M293.807 127.402C294.187 125.041 296.694 112.964 297.9 107.22H300.28C300.629 112.425 301.308 123.08 301.232 124.07C301.169 124.893 298.735 131.031 296.912 135.504C296.564 136.36 295.367 136.311 295.114 135.423C294.329 132.669 293.526 129.14 293.807 127.402Z" fill="#2240A9"/>
<path d="M298.472 103.222C296.796 105.735 296.024 108.592 294.664 108.322C293.876 108.165 293.687 106.429 293.76 104.536C293.184 111.162 296.43 109.134 298.472 103.222Z" fill="#DEE5FF"/>
<path d="M303.597 108.592C304.915 108.592 307.659 102.424 307.706 101.509C307.692 101.862 306.978 105.302 305.22 107.646C302.38 111.432 300.886 105.113 299.894 103.187C301.153 105.026 301.975 108.592 303.597 108.592Z" fill="#DEE5FF"/>
<path d="M298.472 103.222C296.371 102.521 295.134 100.712 294.664 99.5095C294.277 98.8084 292.807 107.953 294.664 108.322C296.024 108.592 296.796 105.735 298.472 103.222Z" fill="#F2F2F2"/>
<path d="M307.706 101.508C307.878 98.1419 306.843 97.3804 306.462 97.5708C304.939 100.046 302.274 102.426 299.894 103.187C301.153 105.026 301.974 108.592 303.597 108.592C304.915 108.592 307.659 102.424 307.706 101.508Z" fill="#F2F2F2"/>
<path d="M319.224 171.478C320.266 199.431 312.269 203.144 310.651 255.121H297.609C292.944 183.153 292.944 162.876 292.944 162.876L319.224 171.478Z" fill="#1E1E2D"/>
<path d="M312.117 181.888C311.712 185.675 313.875 191.625 315.904 193.924" stroke="#2F2F42" stroke-width="2" stroke-linecap="round"/>
<path d="M317.391 180.536C317.391 196.223 309.818 218.537 309.683 250.452" stroke="#2F2F42" stroke-width="2"/>
<path d="M276.951 255.121C276.951 196.099 275.523 190.483 281.717 156.818L300.471 164.148C300.471 164.148 293.516 191.911 291.567 255.121H276.951Z" fill="#1E1E2D"/>
<path d="M283.989 179.184C284.53 183.511 282.907 190.002 278.58 193.383" stroke="#2F2F42" stroke-width="2"/>
<path d="M279.932 178.913C278.76 182.024 276.551 220.295 279.932 245.448" stroke="#2F2F42" stroke-width="2"/>
<path d="M295.732 196.877L298.11 178.639L295.026 178.237L293.102 192.988C292.875 194.731 294.663 197.055 295.732 196.877Z" fill="#2F2F42"/>
<path d="M241.354 137.778C244.495 138.35 248.398 140.349 249.35 138.254C249.842 137.172 249.826 135.58 249.862 134.256C248.106 130.033 242.49 130.128 237.349 126.891C232.502 123.839 238.492 130.561 235.451 130.639C231.739 130.734 226.979 127.021 227.836 131.115C228.692 135.208 238.212 137.207 241.354 137.778Z" fill="#FEBFAE"/>
<path d="M270.77 147.203C265.915 147.584 250.391 142.313 247.345 140.695C244.977 139.437 247.018 130.604 248.963 130.604C248.963 130.604 260.006 132.889 264.956 134.412C269.907 135.935 268.669 128.605 272.382 118.228C276.299 107.281 282.962 105.091 286.572 108.363C289.619 111.123 282.568 130.509 280.854 135.364C279.141 140.219 275.625 146.822 270.77 147.203Z" fill="#0066FF"/>
<path d="M296.377 179.284C296.149 178.523 295.33 170.018 294.949 165.861C294.509 161.197 293.521 143.49 296.377 137.874C299.233 132.257 306.653 100.903 306.462 97.6658C306.35 95.7619 309.604 99.2842 317.797 102.556C328.839 105.887 328.554 108.267 319.034 135.494C309.514 162.72 319.986 180.712 317.511 180.712C315.036 180.712 296.663 180.236 296.377 179.284Z" fill="#0066FF"/>
<path d="M306.462 97.6658C306.432 97.1552 306.644 97.0349 307.128 97.1953C309.413 99.4746 308.747 106.71 310.555 108.328C311.127 108.994 308.804 110.651 307.509 110.803C308.366 112.136 310.555 114.135 312.364 114.135L296.377 137.874C298.33 134.033 302.416 118.161 304.744 107.471C305.821 102.526 306.522 98.6895 306.462 97.6658Z" fill="#3A5ACF"/>
<path d="M284.186 179.345C288.369 180.262 288.762 179.094 290.285 176.238C297.9 159.579 297.805 147.965 296.282 143.3C294.759 138.635 294.093 132.638 293.141 124.07C292.189 115.502 295.324 101.093 294.563 97.7611C294.054 95.5339 287.048 102.937 282.479 105.983C277.909 109.029 279.813 107.411 282.479 132.733C285.144 158.055 272.096 177 274 178.332C275.904 179.665 280.263 178.484 284.186 179.345Z" fill="#0066FF"/>
<path d="M293.141 124.07C294.046 132.216 294.693 138.039 296.064 142.601C296.183 142.968 296.258 143.207 296.282 143.3C296.207 143.07 296.135 142.838 296.064 142.601C294.85 138.863 289.088 121.907 286.186 112.897C287.709 112.516 290.247 111.406 291.041 110.041C290.507 109.737 288.946 107.69 289.137 107.471C290.66 105.719 291.897 98.4518 293.829 97.3801C294.222 97.2896 294.479 97.396 294.563 97.7609C294.894 99.2093 294.489 102.751 294.003 106.996L293.992 107.09C293.362 112.593 292.606 119.254 293.141 124.07Z" fill="#3A5ACF"/>
<path d="M328.025 178.395H290.056C287.303 178.395 285.071 176.535 285.071 174.24V149.824C285.071 147.706 287.131 145.989 289.673 145.989H328.408C330.95 145.989 333.01 147.706 333.01 149.824V174.24C333.01 176.535 330.778 178.395 328.025 178.395Z" fill="black"/>
<path d="M308.667 145.989H328.408C330.95 145.989 333.01 147.706 333.01 149.824V172.1H285.071V149.824C285.071 147.706 287.131 145.989 289.673 145.989H292.998C292.998 144.53 294.418 143.347 296.169 143.347H305.496C307.248 143.347 308.667 144.53 308.667 145.989Z" fill="#1E1E2D"/>
<path d="M317.986 176.523C318.177 172.715 321.128 171.954 320.176 170.812C319.62 170.144 317.743 168.928 316.178 167.987C314.37 166.854 313.798 169.574 311.323 170.145C308.848 170.716 306.278 173.572 306.849 175.381C307.42 177.19 309.8 173.477 309.514 175.381C309.228 177.285 304.278 178.522 307.705 180.331C313.036 182.902 317.796 180.331 317.986 176.523Z" fill="#FEBFAE"/>
<path d="M328.84 161.578C327.888 163.862 324.067 171.218 322.455 171.919C320.39 172.817 312.927 168.189 314.173 166.112C315.315 164.208 320.558 150.725 321.414 144.918C322.271 139.111 318.558 121.595 316.369 115.407C314.179 109.219 315.417 100.652 323.413 104.84C331.41 109.029 333.98 122.071 334.932 136.731C335.69 148.406 329.792 159.293 328.84 161.578Z" fill="#0066FF"/>
<path d="M307.95 75.7198C307.395 77.8148 309.447 77.9004 309.447 83.5442C309.493 84.1629 309.652 84.4795 309.832 84.5627C309.832 89.6585 307.266 95.5258 303.632 98.6801C301.366 100.647 298.758 99.6446 297.304 98.6801C293.747 96.32 291.062 89.4874 291.062 85.1262C292.122 84.0316 290.875 79.6961 292.002 77.8576C292.815 76.5321 292.558 73.4109 293.969 72.9406C295.679 73.753 307.095 71.1448 307.95 75.7198Z" fill="#FEBFAE"/>
<path d="M303.632 98.68C301.366 100.647 298.58 99.8703 297.304 98.68C295.754 97.2331 295.679 93.5919 296.235 92.0954C299.613 88.4611 302.905 90.0003 304.872 92.0954C305.171 95.0456 305.086 97.2118 303.632 98.68Z" fill="#232533"/>
<path d="M288.453 79.0117C288.693 81.1667 289.608 81.0213 291.062 85.1259C292.122 84.0313 290.875 79.6959 292.002 77.8573C292.815 76.5319 292.558 73.4106 293.969 72.9403C295.679 73.7527 307.095 71.1445 307.951 75.7195C307.395 77.8146 309.447 77.9001 309.447 83.544C309.493 84.1626 309.652 84.4792 309.832 84.5624C310.149 84.7093 310.53 84.1298 310.473 83.2019C310.302 80.4227 312.996 81.4061 313.338 71.8714C314.834 71.6576 312.312 65.3296 310.473 66.3558C309.832 64.2607 306.711 63.1918 305.684 63.4483C306.061 62.6958 305.841 61.8521 305.684 61.5243C305.719 62.3452 304.901 62.807 304.487 62.9352C305 62.7642 304.901 61.8378 304.787 61.396C304.821 62.0801 304.031 62.7072 303.632 62.9352C304.145 62.5932 303.846 61.7666 303.632 61.396C303.803 62.2169 303.105 62.7642 302.734 62.9352C303.119 62.5932 302.948 61.9091 302.734 61.396C302.734 62.1143 301.594 62.7215 301.024 62.9352C301.503 62.4906 301.223 61.7238 301.024 61.396C300.853 62.0801 299.812 62.7072 299.314 62.9352C299.724 62.2511 299.485 61.624 299.314 61.396C298.459 64.2179 294.183 62.2084 291.532 67.4674C290.121 66.9116 288.943 68.3225 288.453 69.3487C286.658 73.1113 288.453 77.1304 288.453 79.0117Z" fill="#232533"/>
<path d="M303.974 93.2498C304.188 90.77 297.048 90.6417 297.048 93.2498C297.048 94.0623 297.604 95.7726 299.143 96.5849C299.683 96.1275 300.386 95.0232 299.244 94.8448C299.187 94.8359 299.143 94.788 299.143 94.7303C299.143 94.6684 299.193 94.6181 299.255 94.6181H301.815C301.874 94.6181 301.922 94.666 301.922 94.725C301.922 94.784 301.874 94.8313 301.815 94.8367C301.159 94.8976 300.838 95.5292 301.366 96.5849C302.734 96.5849 303.882 94.3188 303.974 93.2498Z" fill="#FFA289" stroke="#FEBFAE"/>
<path d="M286.526 283.307C277.357 283.307 269.924 281.704 269.924 279.726V283.307C274.807 287.864 301.174 287.539 303.127 283.307V279.726C303.127 281.704 295.694 283.307 286.526 283.307Z" fill="#FEDB35"/>
<path d="M301.534 284.62C301.76 284.513 301.966 284.402 302.15 284.287V281.119C302.15 281.062 302.136 281.009 302.111 280.963C301.929 281.069 301.725 281.173 301.499 281.274V284.474C301.499 284.526 301.512 284.576 301.534 284.62Z" fill="#FBAE2C"/>
<path d="M300.542 285.02C300.765 284.943 300.975 284.863 301.174 284.78V281.538C301.174 281.497 301.166 281.457 301.152 281.421C300.956 281.5 300.746 281.577 300.523 281.652V284.909C300.523 284.948 300.53 284.986 300.542 285.02Z" fill="#FBAE2C"/>
<path d="M299.559 285.324C299.78 285.263 299.993 285.2 300.197 285.135V281.856C300.197 281.823 300.192 281.792 300.184 281.762C299.98 281.826 299.768 281.887 299.546 281.948V285.235C299.546 285.266 299.551 285.296 299.559 285.324Z" fill="#FBAE2C"/>
<path d="M298.578 285.569C298.798 285.519 299.013 285.468 299.221 285.414V282.114C299.221 282.087 299.217 282.061 299.211 282.036C299.004 282.089 298.79 282.14 298.57 282.19V285.495C298.57 285.521 298.573 285.545 298.578 285.569Z" fill="#FBAE2C"/>
<path d="M297.599 285.772C297.819 285.73 298.034 285.687 298.244 285.642V282.33C298.244 282.308 298.242 282.285 298.237 282.264C298.028 282.309 297.813 282.353 297.593 282.395V285.71C297.593 285.731 297.595 285.752 297.599 285.772Z" fill="#FBAE2C"/>
<path d="M296.621 285.942C296.84 285.907 297.056 285.871 297.268 285.833V282.514C297.268 282.495 297.266 282.476 297.263 282.457C297.052 282.496 296.836 282.533 296.617 282.57V285.89C296.617 285.908 296.618 285.925 296.621 285.942Z" fill="#FBAE2C"/>
<path d="M295.643 286.087C295.862 286.057 296.078 286.026 296.291 285.994V282.672C296.291 282.655 296.29 282.639 296.287 282.623C296.075 282.656 295.859 282.688 295.64 282.719V286.042C295.64 286.057 295.641 286.072 295.643 286.087Z" fill="#FBAE2C"/>
<path d="M294.666 286.208C294.885 286.183 295.101 286.157 295.315 286.13V282.807C295.315 282.793 295.314 282.779 295.312 282.765C295.099 282.793 294.883 282.821 294.663 282.848V286.17C294.663 286.183 294.664 286.196 294.666 286.208Z" fill="#FBAE2C"/>
<path d="M293.688 286.311C293.907 286.29 294.124 286.268 294.338 286.245V282.923C294.338 282.911 294.337 282.898 294.336 282.887C294.122 282.911 293.906 282.935 293.687 282.957V286.279C293.687 286.29 293.687 286.3 293.688 286.311Z" fill="#FBAE2C"/>
<path d="M292.711 286.396C292.93 286.378 293.147 286.36 293.361 286.341V283.021C293.361 283.011 293.361 283 293.36 282.99C293.146 283.011 292.929 283.031 292.71 283.05V286.369C292.71 286.378 292.711 286.387 292.711 286.396Z" fill="#FBAE2C"/>
<path d="M291.735 286.465C291.953 286.451 292.17 286.436 292.385 286.42V283.103C292.385 283.094 292.385 283.086 292.384 283.077C292.169 283.095 291.953 283.111 291.734 283.127V286.443C291.734 286.451 291.734 286.458 291.735 286.465Z" fill="#FBAE2C"/>
<path d="M290.758 286.519C290.976 286.509 291.193 286.497 291.408 286.485V283.223C291.408 283.198 291.405 283.174 291.4 283.15C291.188 283.164 290.974 283.177 290.759 283.189C290.758 283.2 290.757 283.212 290.757 283.223V286.503C290.757 286.508 290.757 286.514 290.758 286.519Z" fill="#FBAE2C"/>
<path d="M289.781 286.56C289.999 286.552 290.216 286.544 290.432 286.534V283.223C290.432 283.218 290.432 283.212 290.431 283.207C290.216 283.218 289.999 283.229 289.781 283.238V286.548C289.781 286.552 289.781 286.556 289.781 286.56Z" fill="#FBAE2C"/>
<path d="M288.804 286.587C289.022 286.582 289.239 286.577 289.455 286.57V283.263C289.455 283.259 289.455 283.255 289.455 283.251C289.239 283.259 289.022 283.267 288.804 283.273V286.579C288.804 286.582 288.804 286.584 288.804 286.587Z" fill="#FBAE2C"/>
<path d="M287.828 286.601C288.045 286.599 288.262 286.597 288.479 286.593V283.29C288.479 283.287 288.479 283.285 288.479 283.282C288.263 283.288 288.046 283.292 287.828 283.296V286.598V286.601Z" fill="#FBAE2C"/>
<path d="M286.851 286.603C287.068 286.604 287.285 286.604 287.502 286.603V283.304V283.301C287.286 283.303 287.069 283.305 286.851 283.306V286.603Z" fill="#FBAE2C"/>
<path d="M285.874 286.592C286.091 286.596 286.309 286.599 286.526 286.601V286.597V283.307C286.308 283.307 286.09 283.306 285.875 283.304L285.874 283.307V286.592Z" fill="#FBAE2C"/>
<path d="M284.898 286.568C285.115 286.575 285.332 286.581 285.549 286.586C285.549 286.583 285.549 286.578 285.549 286.578V283.301C285.331 283.298 285.114 283.294 284.898 283.29V283.296V286.568Z" fill="#FBAE2C"/>
<path d="M283.921 286.532C284.138 286.541 284.355 286.55 284.572 286.558C284.572 286.554 284.572 286.55 284.572 286.546V283.282C284.354 283.277 284.137 283.27 283.922 283.263C283.921 283.266 283.921 283.27 283.921 283.273V286.532Z" fill="#FBAE2C"/>
<path d="M282.989 286.485C283.206 286.497 283.423 286.509 283.64 286.519C283.641 286.512 283.641 286.505 283.641 286.498L283.596 283.251C283.378 283.243 283.161 283.234 282.945 283.223C282.945 283.23 282.945 283.236 282.945 283.242L282.989 286.485Z" fill="#FBAE2C"/>
<path d="M281.999 286.421C282.215 286.436 282.432 286.451 282.65 286.464C282.65 286.457 282.65 286.449 282.65 286.44L282.619 283.207C282.401 283.196 282.184 283.183 281.969 283.17C281.968 283.178 281.968 283.185 281.968 283.192L281.999 286.421Z" fill="#FBAE2C"/>
<path d="M280.992 286.34C281.207 286.359 281.424 286.377 281.642 286.394C281.642 286.386 281.643 286.377 281.643 286.368V283.149C281.424 283.135 281.207 283.119 280.993 283.103C280.992 283.111 280.992 283.119 280.992 283.127V286.34Z" fill="#FBAE2C"/>
<path d="M280.015 286.247C280.23 286.269 280.447 286.291 280.665 286.311C280.666 286.301 280.666 286.29 280.666 286.28V283.077C280.447 283.06 280.231 283.041 280.016 283.021C280.016 283.031 280.015 283.04 280.015 283.05V286.247Z" fill="#FBAE2C"/>
<path d="M279 286.131C279.214 286.158 279.43 286.183 279.648 286.207C279.65 286.196 279.65 286.185 279.65 286.174L279.689 282.99C279.47 282.969 279.254 282.946 279.04 282.923C279.039 282.933 279.039 282.943 279.039 282.953L279 286.131Z" fill="#FBAE2C"/>
<path d="M278.062 286.007C278.276 286.037 278.492 286.067 278.71 286.095C278.712 286.081 278.713 286.066 278.713 286.052V282.886C278.494 282.861 278.278 282.835 278.065 282.807C278.063 282.821 278.062 282.834 278.062 282.848V286.007Z" fill="#FBAE2C"/>
<path d="M277.085 285.856C277.299 285.891 277.514 285.926 277.733 285.958C277.735 285.942 277.737 285.926 277.737 285.909V282.764C277.517 282.735 277.301 282.704 277.089 282.672C277.087 282.688 277.085 282.703 277.085 282.719V285.856Z" fill="#FBAE2C"/>
<path d="M276.109 285.681C276.321 285.722 276.537 285.762 276.755 285.8C276.758 285.781 276.76 285.762 276.76 285.743V282.622C276.54 282.588 276.325 282.552 276.113 282.515C276.11 282.533 276.109 282.551 276.109 282.57V285.681Z" fill="#FBAE2C"/>
<path d="M275.132 285.478C275.343 285.526 275.558 285.571 275.777 285.616C275.781 285.594 275.783 285.572 275.783 285.55V282.456C275.563 282.416 275.348 282.374 275.139 282.332C275.135 282.352 275.132 282.373 275.132 282.395V285.478Z" fill="#FBAE2C"/>
<path d="M274.156 285.24C274.365 285.296 274.579 285.349 274.798 285.401C274.804 285.376 274.807 285.351 274.807 285.324V282.262C274.586 282.215 274.372 282.166 274.164 282.116C274.159 282.14 274.156 282.165 274.156 282.19V285.24Z" fill="#FBAE2C"/>
<path d="M273.179 284.958C273.386 285.023 273.599 285.087 273.818 285.148C273.826 285.119 273.83 285.089 273.83 285.058V282.034C273.609 281.977 273.396 281.919 273.191 281.86C273.183 281.888 273.179 281.917 273.179 281.948V284.958Z" fill="#FBAE2C"/>
<path d="M272.203 284.615C272.405 284.694 272.617 284.771 272.835 284.845C272.847 284.811 272.854 284.775 272.854 284.737V281.758C272.632 281.688 272.42 281.617 272.221 281.544C272.209 281.578 272.203 281.614 272.203 281.652V284.615Z" fill="#FBAE2C"/>
<path d="M271.226 284.18C271.422 284.28 271.63 284.377 271.849 284.471C271.867 284.43 271.877 284.385 271.877 284.338V281.413C271.653 281.322 271.446 281.229 271.258 281.134C271.237 281.177 271.226 281.224 271.226 281.274V284.18Z" fill="#FBAE2C"/>
<path d="M270.25 283.58C270.431 283.717 270.632 283.85 270.853 283.978C270.883 283.928 270.901 283.87 270.901 283.808V280.939C270.67 280.801 270.477 280.658 270.326 280.513C270.278 280.569 270.25 280.643 270.25 280.722V280.435C270.036 280.206 269.924 279.969 269.924 279.726V283.307C270.001 283.379 270.084 283.449 270.171 283.519C270.22 283.462 270.25 283.388 270.25 283.307V283.58Z" fill="#FBAE2C"/>
<path d="M302.34 280.819V283.904C302.34 283.982 302.367 284.054 302.412 284.11C302.752 283.86 302.995 283.592 303.127 283.307V279.726C303.127 280.107 302.851 280.474 302.34 280.819Z" fill="#FBAE2C"/>
<ellipse cx="286.526" cy="279.726" rx="16.6014" ry="3.5807" transform="rotate(180 286.526 279.726)" fill="#FEDB35"/>
<path d="M273.416 279.309C273.34 279.341 273.272 279.372 273.212 279.401C273.272 279.43 273.34 279.461 273.416 279.493C274.057 279.762 275.046 280.027 276.343 280.258C278.92 280.716 282.521 281.005 286.526 281.005C290.53 281.005 294.131 280.716 296.708 280.258C298.005 280.027 298.994 279.762 299.635 279.493C299.711 279.461 299.779 279.43 299.84 279.401C299.779 279.372 299.711 279.341 299.635 279.309C298.994 279.039 298.005 278.774 296.708 278.544C294.131 278.086 290.53 277.797 286.526 277.797C282.521 277.797 278.92 278.086 276.343 278.544C275.046 278.774 274.057 279.039 273.416 279.309Z" fill="#F9A52A"/>
<path d="M272.801 279.142C272.801 279.142 272.802 279.143 272.804 279.146M300.25 279.142C300.25 279.142 300.249 279.143 300.247 279.146M300.25 279.659C300.25 279.659 300.249 279.658 300.247 279.656M272.804 279.656C272.802 279.658 272.801 279.659 272.801 279.659M273.416 279.309C273.34 279.341 273.272 279.372 273.212 279.401C273.272 279.43 273.34 279.461 273.416 279.493C274.057 279.762 275.046 280.027 276.343 280.258C278.92 280.716 282.521 281.005 286.526 281.005C290.53 281.005 294.131 280.716 296.708 280.258C298.005 280.027 298.994 279.762 299.635 279.493C299.711 279.461 299.779 279.43 299.84 279.401C299.779 279.372 299.711 279.341 299.635 279.309C298.994 279.039 298.005 278.774 296.708 278.544C294.131 278.086 290.53 277.797 286.526 277.797C282.521 277.797 278.92 278.086 276.343 278.544C275.046 278.774 274.057 279.039 273.416 279.309Z" stroke="#FBAE2C" stroke-width="2"/>
<path d="M288.645 278.624C279.476 278.624 272.044 277.021 272.044 275.043V278.624C276.927 283.181 303.293 282.855 305.247 278.624V275.043C305.247 277.021 297.814 278.624 288.645 278.624Z" fill="#FEDB35"/>
<path d="M303.653 279.937C303.879 279.83 304.085 279.719 304.27 279.604V276.435C304.27 276.379 304.256 276.326 304.23 276.279C304.049 276.386 303.845 276.49 303.619 276.591V279.791C303.619 279.843 303.631 279.893 303.653 279.937Z" fill="#FBAE2C"/>
<path d="M302.662 280.337C302.884 280.26 303.095 280.18 303.293 280.097V276.855C303.293 276.814 303.286 276.774 303.272 276.738C303.075 276.817 302.865 276.894 302.642 276.969V280.226C302.642 280.265 302.649 280.303 302.662 280.337Z" fill="#FBAE2C"/>
<path d="M301.678 280.641C301.899 280.58 302.112 280.517 302.317 280.452V277.173C302.317 277.14 302.312 277.109 302.303 277.079C302.1 277.142 301.887 277.204 301.666 277.265V280.552C301.666 280.583 301.67 280.613 301.678 280.641Z" fill="#FBAE2C"/>
<path d="M300.698 280.886C300.918 280.836 301.132 280.784 301.34 280.731V277.431C301.34 277.404 301.337 277.378 301.331 277.353C301.124 277.406 300.91 277.457 300.689 277.507V280.812C300.689 280.837 300.692 280.862 300.698 280.886Z" fill="#FBAE2C"/>
<path d="M299.719 281.089C299.939 281.047 300.154 281.004 300.364 280.959V277.647C300.364 277.625 300.361 277.602 300.357 277.581C300.148 277.626 299.933 277.669 299.713 277.712V281.027C299.713 281.048 299.715 281.069 299.719 281.089Z" fill="#FBAE2C"/>
<path d="M298.74 281.259C298.96 281.224 299.176 281.188 299.387 281.15V277.831C299.387 277.812 299.386 277.793 299.382 277.774C299.171 277.813 298.956 277.85 298.736 277.886V281.206C298.736 281.224 298.738 281.242 298.74 281.259Z" fill="#FBAE2C"/>
<path d="M297.763 281.403C297.982 281.374 298.198 281.343 298.411 281.311V277.989C298.411 277.972 298.409 277.956 298.407 277.94C298.195 277.973 297.979 278.005 297.76 278.036V281.359C297.76 281.374 297.761 281.389 297.763 281.403Z" fill="#FBAE2C"/>
<path d="M296.785 281.525C297.004 281.5 297.221 281.474 297.434 281.447V278.124C297.434 278.11 297.433 278.096 297.431 278.082C297.218 278.11 297.002 278.138 296.783 278.165V281.487C296.783 281.5 296.784 281.513 296.785 281.525Z" fill="#FBAE2C"/>
<path d="M295.808 281.628C296.027 281.607 296.243 281.585 296.458 281.562V278.24C296.458 278.227 296.457 278.215 296.456 278.203C296.242 278.228 296.026 278.252 295.807 278.274V281.596C295.807 281.606 295.807 281.617 295.808 281.628Z" fill="#FBAE2C"/>
<path d="M294.831 281.713C295.049 281.695 295.266 281.677 295.481 281.658V278.338C295.481 278.327 295.481 278.317 295.48 278.307C295.265 278.328 295.049 278.348 294.83 278.367V281.686C294.83 281.695 294.83 281.704 294.831 281.713Z" fill="#FBAE2C"/>
<path d="M293.854 281.782C294.072 281.768 294.289 281.753 294.504 281.737V278.42C294.504 278.411 294.504 278.403 294.503 278.394C294.289 278.412 294.072 278.428 293.853 278.444V281.76C293.853 281.768 293.854 281.775 293.854 281.782Z" fill="#FBAE2C"/>
<path d="M292.877 281.836C293.095 281.826 293.312 281.814 293.528 281.801V278.54C293.528 278.515 293.525 278.49 293.52 278.467C293.308 278.481 293.094 278.494 292.879 278.506C292.877 278.517 292.877 278.529 292.877 278.54V281.82C292.877 281.825 292.877 281.831 292.877 281.836Z" fill="#FBAE2C"/>
<path d="M291.901 281.877C292.118 281.869 292.335 281.861 292.551 281.851V278.54C292.551 278.535 292.551 278.529 292.551 278.524C292.336 278.535 292.119 278.545 291.9 278.555V281.865C291.9 281.869 291.9 281.873 291.901 281.877Z" fill="#FBAE2C"/>
<path d="M290.924 281.904C291.141 281.899 291.359 281.894 291.575 281.887V278.58C291.575 278.576 291.575 278.572 291.575 278.568C291.359 278.576 291.142 278.584 290.924 278.59V281.896C290.924 281.899 290.924 281.901 290.924 281.904Z" fill="#FBAE2C"/>
<path d="M289.947 281.918C290.165 281.916 290.382 281.914 290.598 281.91V278.607C290.598 278.604 290.598 278.602 290.598 278.599C290.382 278.605 290.165 278.609 289.947 278.613V281.915V281.918Z" fill="#FBAE2C"/>
<path d="M288.971 281.92C289.188 281.921 289.405 281.921 289.622 281.92V278.621V278.618C289.406 278.62 289.189 278.622 288.971 278.623V281.92Z" fill="#FBAE2C"/>
<path d="M287.994 281.909C288.211 281.913 288.428 281.916 288.645 281.918V281.914V278.624C288.427 278.624 288.21 278.623 287.994 278.621V278.624V281.909Z" fill="#FBAE2C"/>
<path d="M287.018 281.885C287.234 281.892 287.451 281.898 287.669 281.902C287.669 281.9 287.669 281.897 287.669 281.895V278.618C287.45 278.615 287.233 278.611 287.018 278.607C287.018 278.609 287.018 278.611 287.018 278.613V281.885Z" fill="#FBAE2C"/>
<path d="M286.041 281.849C286.257 281.858 286.474 281.867 286.692 281.875C286.692 281.871 286.692 281.867 286.692 281.862V278.599C286.474 278.594 286.257 278.587 286.041 278.58C286.041 278.583 286.041 278.587 286.041 278.59V281.849Z" fill="#FBAE2C"/>
<path d="M285.109 281.802C285.325 281.814 285.542 281.825 285.76 281.836C285.76 281.829 285.761 281.822 285.76 281.815L285.716 278.568C285.497 278.56 285.28 278.55 285.065 278.54C285.064 278.547 285.064 278.553 285.064 278.559L285.109 281.802Z" fill="#FBAE2C"/>
<path d="M284.119 281.738C284.335 281.753 284.551 281.768 284.769 281.781C284.77 281.773 284.77 281.765 284.77 281.757L284.739 278.524C284.521 278.513 284.304 278.5 284.088 278.487C284.088 278.494 284.088 278.502 284.088 278.509L284.119 281.738Z" fill="#FBAE2C"/>
<path d="M283.111 281.657C283.327 281.676 283.544 281.694 283.761 281.711C283.762 281.703 283.762 281.694 283.762 281.685V278.466C283.544 278.452 283.327 278.436 283.112 278.42C283.112 278.428 283.111 278.436 283.111 278.444V281.657Z" fill="#FBAE2C"/>
<path d="M282.135 281.564C282.35 281.586 282.566 281.607 282.784 281.628C282.785 281.618 282.786 281.607 282.786 281.597V278.394C282.567 278.376 282.35 278.358 282.136 278.338C282.135 278.348 282.135 278.357 282.135 278.367V281.564Z" fill="#FBAE2C"/>
<path d="M281.119 281.448C281.334 281.475 281.55 281.5 281.768 281.524C281.769 281.513 281.77 281.502 281.77 281.491L281.809 278.307C281.59 278.286 281.374 278.263 281.16 278.24C281.159 278.25 281.158 278.26 281.158 278.27L281.119 281.448Z" fill="#FBAE2C"/>
<path d="M280.182 281.323C280.396 281.354 280.612 281.383 280.83 281.412C280.832 281.398 280.833 281.383 280.833 281.369V278.203C280.614 278.178 280.397 278.152 280.184 278.124C280.183 278.138 280.182 278.151 280.182 278.165V281.323Z" fill="#FBAE2C"/>
<path d="M279.205 281.173C279.418 281.208 279.634 281.242 279.852 281.275C279.855 281.259 279.856 281.243 279.856 281.226V278.081C279.637 278.052 279.421 278.021 279.208 277.989C279.206 278.005 279.205 278.02 279.205 278.036V281.173Z" fill="#FBAE2C"/>
<path d="M278.229 280.998C278.441 281.039 278.656 281.079 278.875 281.117C278.878 281.098 278.88 281.079 278.88 281.06V277.939C278.66 277.904 278.444 277.869 278.233 277.832C278.23 277.85 278.229 277.868 278.229 277.886V280.998Z" fill="#FBAE2C"/>
<path d="M277.252 280.795C277.463 280.843 277.678 280.888 277.896 280.933C277.901 280.911 277.903 280.889 277.903 280.866V277.773C277.683 277.733 277.468 277.691 277.258 277.649C277.254 277.669 277.252 277.69 277.252 277.712V280.795Z" fill="#FBAE2C"/>
<path d="M276.275 280.557C276.485 280.612 276.699 280.666 276.917 280.718C276.923 280.693 276.926 280.667 276.926 280.641V277.579C276.706 277.532 276.492 277.483 276.284 277.433C276.278 277.457 276.275 277.482 276.275 277.507V280.557Z" fill="#FBAE2C"/>
<path d="M275.299 280.275C275.506 280.34 275.718 280.404 275.937 280.465C275.946 280.436 275.95 280.406 275.95 280.375V277.35C275.729 277.294 275.516 277.236 275.311 277.176C275.303 277.204 275.299 277.234 275.299 277.265V280.275Z" fill="#FBAE2C"/>
<path d="M274.322 279.932C274.525 280.011 274.736 280.088 274.955 280.162C274.967 280.128 274.973 280.092 274.973 280.054V277.075C274.751 277.005 274.54 276.934 274.341 276.861C274.329 276.895 274.322 276.931 274.322 276.969V279.932Z" fill="#FBAE2C"/>
<path d="M273.346 279.497C273.542 279.597 273.75 279.694 273.969 279.787C273.987 279.747 273.997 279.702 273.997 279.655V276.729C273.772 276.639 273.566 276.546 273.377 276.451C273.357 276.494 273.346 276.541 273.346 276.591V279.497Z" fill="#FBAE2C"/>
<path d="M272.369 278.897C272.55 279.034 272.752 279.167 272.972 279.295C273.003 279.245 273.02 279.187 273.02 279.125V276.256C272.789 276.118 272.597 275.975 272.446 275.83C272.398 275.886 272.369 275.959 272.369 276.039V275.752C272.156 275.523 272.044 275.286 272.044 275.043V278.624C272.121 278.696 272.203 278.766 272.291 278.836C272.34 278.779 272.369 278.705 272.369 278.624V278.897Z" fill="#FBAE2C"/>
<path d="M304.459 276.136V279.221C304.459 279.299 304.486 279.371 304.532 279.427C304.872 279.177 305.115 278.909 305.247 278.624V275.043C305.247 275.424 304.971 275.791 304.459 276.136Z" fill="#FBAE2C"/>
<ellipse cx="288.645" cy="275.043" rx="16.6014" ry="3.5807" transform="rotate(180 288.645 275.043)" fill="#FEDB35"/>
<path d="M275.535 274.626C275.46 274.658 275.392 274.688 275.331 274.717C275.392 274.747 275.46 274.777 275.535 274.809C276.177 275.079 277.165 275.344 278.462 275.574C281.04 276.032 284.64 276.322 288.645 276.322C292.65 276.322 296.251 276.032 298.828 275.574C300.125 275.344 301.114 275.079 301.755 274.809C301.831 274.777 301.899 274.747 301.959 274.717C301.899 274.688 301.831 274.658 301.755 274.626C301.114 274.356 300.125 274.091 298.828 273.861C296.251 273.402 292.65 273.113 288.645 273.113C284.64 273.113 281.04 273.402 278.462 273.861C277.165 274.091 276.177 274.356 275.535 274.626Z" fill="#F9A52A"/>
<path d="M274.921 274.459C274.921 274.459 274.922 274.46 274.924 274.462M302.37 274.459C302.37 274.459 302.368 274.46 302.367 274.462M302.37 274.976C302.37 274.976 302.369 274.975 302.367 274.972M274.924 274.972C274.922 274.975 274.921 274.976 274.921 274.976M275.535 274.626C275.46 274.658 275.392 274.688 275.331 274.717C275.392 274.747 275.46 274.777 275.535 274.809C276.177 275.079 277.165 275.344 278.462 275.574C281.04 276.032 284.64 276.322 288.645 276.322C292.65 276.322 296.251 276.032 298.828 275.574C300.125 275.344 301.114 275.079 301.755 274.809C301.831 274.777 301.899 274.747 301.959 274.717C301.899 274.688 301.831 274.658 301.755 274.626C301.114 274.356 300.125 274.091 298.828 273.861C296.251 273.402 292.65 273.113 288.645 273.113C284.64 273.113 281.04 273.402 278.462 273.861C277.165 274.091 276.177 274.356 275.535 274.626Z" stroke="#FBAE2C" stroke-width="2"/>
<path d="M290.058 274.385C280.889 274.385 273.456 272.782 273.456 270.804V274.385C278.339 278.942 304.706 278.617 306.659 274.385V270.804C306.659 272.782 299.226 274.385 290.058 274.385Z" fill="#FEDB35"/>
<path d="M305.066 275.698C305.292 275.591 305.498 275.48 305.683 275.365V272.197C305.683 272.14 305.668 272.087 305.643 272.041C305.461 272.147 305.257 272.251 305.032 272.353V275.552C305.032 275.605 305.044 275.654 305.066 275.698Z" fill="#FBAE2C"/>
<path d="M304.074 276.099C304.297 276.021 304.508 275.941 304.706 275.858V272.616C304.706 272.575 304.698 272.536 304.685 272.5C304.488 272.578 304.278 272.655 304.055 272.731V275.988C304.055 276.027 304.062 276.064 304.074 276.099Z" fill="#FBAE2C"/>
<path d="M303.091 276.403C303.312 276.342 303.525 276.279 303.73 276.213V272.934C303.73 272.902 303.725 272.87 303.716 272.841C303.512 272.904 303.3 272.966 303.078 273.026V276.313C303.078 276.344 303.083 276.374 303.091 276.403Z" fill="#FBAE2C"/>
<path d="M302.11 276.648C302.331 276.598 302.545 276.546 302.753 276.493V273.193C302.753 273.166 302.75 273.139 302.743 273.114C302.536 273.167 302.323 273.219 302.102 273.269V276.573C302.102 276.599 302.105 276.624 302.11 276.648Z" fill="#FBAE2C"/>
<path d="M301.131 276.85C301.351 276.809 301.566 276.766 301.776 276.721V273.409C301.776 273.386 301.774 273.364 301.77 273.342C301.56 273.387 301.345 273.431 301.125 273.473V276.788C301.125 276.809 301.127 276.83 301.131 276.85Z" fill="#FBAE2C"/>
<path d="M300.153 277.021C300.373 276.986 300.588 276.949 300.8 276.911V273.593C300.8 273.573 300.798 273.554 300.795 273.536C300.584 273.574 300.369 273.612 300.149 273.648V276.968C300.149 276.986 300.15 277.004 300.153 277.021Z" fill="#FBAE2C"/>
<path d="M299.175 277.165C299.394 277.135 299.611 277.104 299.823 277.072V273.75C299.823 273.734 299.822 273.717 299.82 273.701C299.608 273.734 299.392 273.767 299.172 273.798V277.12C299.172 277.135 299.173 277.15 299.175 277.165Z" fill="#FBAE2C"/>
<path d="M298.198 277.287C298.417 277.262 298.633 277.236 298.847 277.208V273.886C298.847 273.871 298.846 273.857 298.844 273.843C298.631 273.872 298.415 273.9 298.196 273.926V277.249C298.196 277.262 298.196 277.274 298.198 277.287Z" fill="#FBAE2C"/>
<path d="M297.221 277.389C297.439 277.368 297.656 277.346 297.87 277.323V274.001C297.87 273.989 297.87 273.977 297.868 273.965C297.655 273.99 297.438 274.013 297.219 274.036V277.357C297.219 277.368 297.22 277.379 297.221 277.389Z" fill="#FBAE2C"/>
<path d="M296.244 277.474C296.462 277.457 296.679 277.439 296.894 277.419V274.099C296.894 274.089 296.893 274.079 296.892 274.069C296.678 274.089 296.461 274.109 296.243 274.128V277.448C296.243 277.457 296.243 277.465 296.244 277.474Z" fill="#FBAE2C"/>
<path d="M295.267 277.543C295.485 277.529 295.702 277.515 295.917 277.499V274.181C295.917 274.173 295.917 274.164 295.916 274.156C295.701 274.173 295.485 274.19 295.266 274.205V277.522C295.266 277.529 295.266 277.536 295.267 277.543Z" fill="#FBAE2C"/>
<path d="M294.29 277.598C294.508 277.587 294.725 277.575 294.941 277.563V274.302C294.941 274.276 294.938 274.252 294.932 274.228C294.72 274.242 294.507 274.255 294.291 274.268C294.29 274.279 294.289 274.29 294.289 274.302V277.581C294.289 277.587 294.29 277.592 294.29 277.598Z" fill="#FBAE2C"/>
<path d="M293.313 277.638C293.531 277.631 293.748 277.622 293.964 277.613V274.302C293.964 274.296 293.964 274.291 293.964 274.285C293.748 274.297 293.531 274.307 293.313 274.316V277.626C293.313 277.63 293.313 277.634 293.313 277.638Z" fill="#FBAE2C"/>
<path d="M292.336 277.665C292.554 277.661 292.771 277.655 292.987 277.649V274.341C292.987 274.337 292.987 274.333 292.987 274.33C292.772 274.338 292.555 274.345 292.336 274.352V277.658C292.336 277.66 292.336 277.663 292.336 277.665Z" fill="#FBAE2C"/>
<path d="M291.36 277.68C291.577 277.678 291.794 277.675 292.011 277.671V274.368C292.011 274.366 292.011 274.363 292.011 274.361C291.795 274.366 291.578 274.371 291.36 274.374V277.676V277.68Z" fill="#FBAE2C"/>
<path d="M290.383 277.681C290.6 277.682 290.818 277.682 291.034 277.682V274.382V274.379C290.818 274.382 290.601 274.384 290.383 274.384V277.681Z" fill="#FBAE2C"/>
<path d="M289.407 277.67C289.624 277.674 289.841 277.677 290.058 277.679V277.675V274.385C289.84 274.385 289.623 274.384 289.407 274.382V274.385V277.67Z" fill="#FBAE2C"/>
<path d="M288.43 277.647C288.647 277.653 288.864 277.659 289.081 277.664C289.081 277.661 289.081 277.659 289.081 277.656V274.379C288.863 274.376 288.646 274.373 288.43 274.368V274.374V277.647Z" fill="#FBAE2C"/>
<path d="M287.454 277.61C287.67 277.62 287.887 277.628 288.104 277.636C288.105 277.632 288.105 277.628 288.105 277.624V274.361C287.886 274.355 287.669 274.349 287.454 274.341C287.454 274.345 287.454 274.348 287.454 274.352V277.61Z" fill="#FBAE2C"/>
<path d="M286.522 277.563C286.738 277.576 286.955 277.587 287.173 277.597C287.173 277.59 287.173 277.584 287.173 277.577L287.128 274.33C286.91 274.321 286.693 274.312 286.477 274.302C286.477 274.308 286.477 274.314 286.477 274.321L286.522 277.563Z" fill="#FBAE2C"/>
<path d="M285.531 277.499C285.747 277.515 285.964 277.529 286.182 277.543C286.182 277.535 286.182 277.527 286.182 277.519L286.152 274.285C285.933 274.274 285.716 274.262 285.501 274.249C285.501 274.256 285.5 274.263 285.501 274.271L285.531 277.499Z" fill="#FBAE2C"/>
<path d="M284.524 277.419C284.739 277.438 284.956 277.456 285.174 277.473C285.175 277.464 285.175 277.455 285.175 277.447V274.228C284.956 274.213 284.74 274.198 284.525 274.181C284.524 274.189 284.524 274.197 284.524 274.205V277.419Z" fill="#FBAE2C"/>
<path d="M283.547 277.325C283.762 277.348 283.979 277.369 284.197 277.389C284.198 277.379 284.198 277.369 284.198 277.358V274.156C283.98 274.138 283.763 274.119 283.549 274.099C283.548 274.109 283.547 274.119 283.547 274.128V277.325Z" fill="#FBAE2C"/>
<path d="M282.532 277.21C282.746 277.236 282.963 277.261 283.181 277.286C283.182 277.275 283.182 277.264 283.183 277.253L283.221 274.068C283.003 274.047 282.786 274.025 282.573 274.001C282.572 274.011 282.571 274.022 282.571 274.032L282.532 277.21Z" fill="#FBAE2C"/>
<path d="M281.594 277.085C281.808 277.116 282.024 277.145 282.243 277.173C282.244 277.159 282.245 277.145 282.245 277.13V273.965C282.026 273.939 281.81 273.913 281.597 273.886C281.595 273.899 281.594 273.913 281.594 273.926V277.085Z" fill="#FBAE2C"/>
<path d="M280.618 276.934C280.831 276.97 281.047 277.004 281.265 277.037C281.267 277.021 281.269 277.004 281.269 276.987V273.843C281.049 273.813 280.833 273.783 280.621 273.751C280.619 273.766 280.618 273.782 280.618 273.798V276.934Z" fill="#FBAE2C"/>
<path d="M279.641 276.76C279.853 276.801 280.069 276.84 280.287 276.878C280.29 276.86 280.292 276.841 280.292 276.821V273.7C280.073 273.666 279.857 273.63 279.646 273.594C279.643 273.611 279.641 273.629 279.641 273.648V276.76Z" fill="#FBAE2C"/>
<path d="M278.665 276.557C278.875 276.604 279.09 276.65 279.309 276.694C279.313 276.673 279.316 276.651 279.316 276.628V273.535C279.096 273.494 278.881 273.453 278.671 273.41C278.667 273.431 278.665 273.452 278.665 273.473V276.557Z" fill="#FBAE2C"/>
<path d="M277.688 276.319C277.897 276.374 278.111 276.428 278.33 276.479C278.336 276.455 278.339 276.429 278.339 276.402V273.341C278.119 273.293 277.904 273.245 277.697 273.195C277.691 273.219 277.688 273.243 277.688 273.269V276.319Z" fill="#FBAE2C"/>
<path d="M276.712 276.036C276.918 276.102 277.131 276.165 277.35 276.226C277.358 276.198 277.363 276.167 277.363 276.136V273.112C277.141 273.055 276.928 272.997 276.724 272.938C276.716 272.966 276.712 272.995 276.712 273.026V276.036Z" fill="#FBAE2C"/>
<path d="M275.735 275.693C275.938 275.772 276.149 275.849 276.368 275.923C276.38 275.89 276.386 275.853 276.386 275.816V272.836C276.164 272.767 275.953 272.696 275.753 272.623C275.741 272.657 275.735 272.693 275.735 272.731V275.693Z" fill="#FBAE2C"/>
<path d="M274.758 275.259C274.954 275.359 275.162 275.455 275.382 275.549C275.399 275.509 275.409 275.464 275.409 275.417V272.491C275.185 272.401 274.978 272.308 274.79 272.213C274.77 272.255 274.758 272.303 274.758 272.353V275.259Z" fill="#FBAE2C"/>
<path d="M273.782 274.658C273.963 274.796 274.164 274.928 274.385 275.056C274.415 275.007 274.433 274.948 274.433 274.886V272.017C274.202 271.879 274.01 271.737 273.858 271.591C273.811 271.648 273.782 271.721 273.782 271.801V271.514C273.568 271.284 273.456 271.047 273.456 270.804V274.385C273.533 274.457 273.616 274.528 273.703 274.597C273.752 274.54 273.782 274.466 273.782 274.385V274.658Z" fill="#FBAE2C"/>
<path d="M305.872 271.897V274.983C305.872 275.061 305.899 275.132 305.945 275.188C306.285 274.938 306.527 274.671 306.659 274.385V270.804C306.659 271.186 306.383 271.553 305.872 271.897Z" fill="#FBAE2C"/>
<ellipse cx="290.058" cy="270.804" rx="16.6014" ry="3.5807" transform="rotate(180 290.058 270.804)" fill="#FEDB35"/>
<path d="M276.948 270.387C276.872 270.419 276.804 270.45 276.744 270.479C276.804 270.508 276.872 270.539 276.948 270.571C277.589 270.84 278.578 271.105 279.875 271.336C282.452 271.794 286.053 272.083 290.058 272.083C294.063 272.083 297.663 271.794 300.241 271.336C301.537 271.105 302.526 270.84 303.167 270.571C303.243 270.539 303.311 270.508 303.372 270.479C303.311 270.45 303.243 270.419 303.167 270.387C302.526 270.118 301.537 269.853 300.241 269.622C297.663 269.164 294.063 268.875 290.058 268.875C286.053 268.875 282.452 269.164 279.875 269.622C278.578 269.853 277.589 270.118 276.948 270.387Z" fill="#F9A52A"/>
<path d="M276.333 270.22C276.333 270.22 276.334 270.222 276.336 270.224M303.782 270.22C303.782 270.22 303.781 270.222 303.779 270.224M303.782 270.737C303.782 270.737 303.781 270.736 303.779 270.734M276.336 270.734C276.334 270.736 276.333 270.737 276.333 270.737M276.948 270.387C276.872 270.419 276.804 270.45 276.744 270.479C276.804 270.508 276.872 270.539 276.948 270.571C277.589 270.84 278.578 271.105 279.875 271.336C282.452 271.794 286.053 272.083 290.058 272.083C294.063 272.083 297.663 271.794 300.241 271.336C301.537 271.105 302.526 270.84 303.167 270.571C303.243 270.539 303.311 270.508 303.372 270.479C303.311 270.45 303.243 270.419 303.167 270.387C302.526 270.118 301.537 269.853 300.241 269.622C297.663 269.164 294.063 268.875 290.058 268.875C286.053 268.875 282.452 269.164 279.875 269.622C278.578 269.853 277.589 270.118 276.948 270.387Z" stroke="#FBAE2C" stroke-width="2"/>
<path d="M289.076 287.123C300.697 287.123 310.118 283.499 310.118 279.029V270.936C310.118 275.278 300.697 278.798 289.076 278.798C277.455 278.798 268.034 275.278 268.034 270.936V279.029C268.034 283.499 277.455 287.123 289.076 287.123Z" fill="#FFE29E"/>
<path d="M289.074 287.123V278.798C288.45 278.798 287.833 278.788 287.224 278.768V287.092C287.833 287.112 288.45 287.123 289.074 287.123Z" fill="#FFCE5B"/>
<path d="M286.299 287.053V278.73C285.673 278.699 285.056 278.658 284.449 278.607V286.926C285.056 286.979 285.673 287.021 286.299 287.053Z" fill="#FFCE5B"/>
<path d="M283.524 286.838V278.522C282.895 278.458 282.278 278.383 281.674 278.298V286.608C282.278 286.695 282.895 286.772 283.524 286.838Z" fill="#FFCE5B"/>
<path d="M280.749 286.464V278.159C280.116 278.057 279.499 277.943 278.899 277.819V286.115C279.499 286.242 280.116 286.359 280.749 286.464Z" fill="#FFCE5B"/>
<path d="M277.974 285.906V277.616C277.334 277.467 276.717 277.306 276.125 277.133V285.408C276.717 285.586 277.334 285.753 277.974 285.906Z" fill="#FFCE5B"/>
<path d="M275.2 285.114V276.847C274.546 276.632 273.928 276.403 273.35 276.16V284.407C273.928 284.657 274.546 284.893 275.2 285.114Z" fill="#FFCE5B"/>
<path d="M272.425 283.978V275.744C271.736 275.411 271.116 275.057 270.575 274.685V282.888C271.116 283.271 271.736 283.636 272.425 283.978Z" fill="#FFCE5B"/>
<path d="M269.65 282.146V273.964C268.907 273.298 268.401 272.586 268.172 271.843H268.034V279.029C268.034 280.134 268.609 281.187 269.65 282.146Z" fill="#FFCE5B"/>
<path d="M291.848 287.053C291.24 287.084 290.623 287.105 289.999 287.115V278.791C290.623 278.781 291.24 278.76 291.848 278.731V287.053Z" fill="#FFCE5B"/>
<path d="M294.623 286.838C294.017 286.902 293.4 286.955 292.773 286.998V278.677C293.4 278.636 294.017 278.584 294.623 278.522V286.838Z" fill="#FFCE5B"/>
<path d="M297.398 286.465C296.795 286.565 296.178 286.654 295.548 286.732V278.419C296.178 278.343 296.795 278.256 297.398 278.159V286.465Z" fill="#FFCE5B"/>
<path d="M300.173 285.907C299.576 286.05 298.958 286.181 298.323 286.301V278C298.958 277.884 299.576 277.756 300.173 277.617V285.907Z" fill="#FFCE5B"/>
<path d="M302.948 285.115C302.359 285.314 301.742 285.5 301.098 285.672V277.39C301.742 277.222 302.359 277.041 302.948 276.848V285.115Z" fill="#FFCE5B"/>
<path d="M305.722 283.98C305.152 284.264 304.534 284.532 303.873 284.784V276.526C304.534 276.282 305.152 276.021 305.722 275.746V283.98Z" fill="#FFCE5B"/>
<path d="M308.497 282.15C307.988 282.618 307.367 283.065 306.647 283.484V275.263C307.367 274.856 307.988 274.423 308.497 273.967V282.15Z" fill="#FFCE5B"/>
<path d="M310.118 271.843V279.029C310.118 279.746 309.876 280.44 309.422 281.101V272.949C309.676 272.59 309.864 272.22 309.98 271.843H310.118Z" fill="#FFCE5B"/>
<path d="M289.075 287.122C277.454 287.122 268.033 283.499 268.033 279.029C268.025 279.338 268.033 279.954 268.195 280.648C268.49 281.248 268.945 281.817 269.531 282.351C270.625 283.345 272.194 284.23 274.113 284.968C277.954 286.445 283.244 287.354 289.075 287.354C294.907 287.354 300.197 286.445 304.038 284.968C305.957 284.23 307.526 283.345 308.62 282.351C309.023 281.984 309.364 281.6 309.633 281.201C309.802 280.951 310.116 280.282 310.116 279.242C310.069 279.92 309.841 280.398 309.633 280.764C307.569 284.4 299.149 287.122 289.075 287.122Z" fill="#FFC234"/>
<path d="M309.887 272.644C309.591 273.18 309.16 273.69 308.617 274.17C307.524 275.136 305.955 275.995 304.036 276.712C300.196 278.147 294.907 279.029 289.076 279.029C283.245 279.029 277.956 278.147 274.116 276.712C272.197 275.995 270.628 275.136 269.534 274.17C268.992 273.69 268.561 273.18 268.265 272.644C268.087 272.001 268.038 271.285 268.034 270.973C268.034 270.961 268.034 270.948 268.034 270.936C268.034 270.948 268.034 270.96 268.034 270.973C268.039 271.358 268.117 271.736 268.265 272.106C269.777 275.893 278.518 278.798 289.076 278.798C299.633 278.798 308.375 275.893 309.887 272.106C310.039 271.724 310.118 271.334 310.118 270.936C310.118 271.227 310.118 271.977 309.887 272.644Z" fill="white"/>
<path d="M310.118 270.936C310.118 275.278 300.697 278.798 289.075 278.798C277.454 278.798 268.033 275.278 268.033 270.936C268.033 266.594 277.454 263.074 289.075 263.074C300.697 263.074 310.118 266.594 310.118 270.936Z" fill="#FFCE5B"/>
<path d="M310.104 271.225C310.113 271.129 310.118 271.033 310.118 270.936C310.118 266.594 300.697 263.074 289.075 263.074C277.454 263.074 268.033 266.594 268.033 270.936C268.033 271.026 268.037 271.114 268.045 271.203C268.451 266.933 277.71 263.518 289.073 263.518C300.456 263.518 309.727 266.944 310.104 271.225Z" fill="#FFF8EA"/>
<path d="M306.187 270.938C306.187 274.513 298.526 277.412 289.076 277.412C279.626 277.412 271.965 274.513 271.965 270.938C271.965 267.362 279.626 264.463 289.076 264.463C298.526 264.463 306.187 267.362 306.187 270.938Z" fill="#FFCE5B"/>
<path d="M306.183 270.788C306.032 274.188 298.43 276.928 289.074 276.928C279.754 276.928 272.175 274.209 271.967 270.827C271.966 270.863 271.965 270.899 271.965 270.935C271.965 274.51 279.626 277.409 289.076 277.409C298.526 277.409 306.187 274.51 306.187 270.935C306.187 270.885 306.186 270.836 306.183 270.788Z" fill="#FFC234"/>
<path d="M293.241 270.501C292.597 270.525 292.096 270.631 291.736 270.818C291.375 271.004 291.041 271.321 290.731 271.768C290.422 272.215 290.107 272.629 289.787 273.009C289.466 273.39 289.091 273.722 288.662 274.004C288.232 274.287 287.73 274.51 287.157 274.674C286.584 274.838 285.886 274.935 285.063 274.966C283.686 275.018 282.544 274.808 281.637 274.335C280.722 273.864 280.175 273.209 279.997 272.372L277.419 272.469L277.379 271.411L280.006 271.312C280.196 270.493 280.787 269.833 281.78 269.334C282.764 268.83 284.03 268.55 285.578 268.491L285.663 270.74C284.816 270.772 284.167 270.885 283.718 271.079C283.268 271.274 283.049 271.535 283.062 271.864C283.073 272.156 283.253 272.378 283.601 272.529C283.941 272.677 284.408 272.739 285.003 272.716C285.606 272.694 286.083 272.583 286.434 272.383C286.778 272.183 287.105 271.871 287.415 271.447C287.717 271.022 288.037 270.622 288.373 270.245C288.701 269.864 289.081 269.532 289.51 269.249C289.94 268.967 290.446 268.739 291.027 268.566C291.608 268.393 292.309 268.291 293.132 268.26C294.525 268.208 295.671 268.407 296.569 268.857C297.467 269.303 298.005 269.938 298.183 270.761L300.639 270.669L300.679 271.727L298.21 271.82C298.059 272.793 297.48 273.559 296.473 274.117C295.458 274.67 294.107 274.978 292.421 275.042L292.336 272.8C293.265 272.765 293.97 272.628 294.45 272.387C294.922 272.143 295.151 271.815 295.135 271.402C295.124 271.101 294.952 270.87 294.62 270.709C294.279 270.549 293.82 270.479 293.241 270.501Z" fill="white"/>
<path d="M306.123 271.502C306.166 271.316 306.187 271.128 306.187 270.938C306.187 267.362 298.526 264.463 289.076 264.463C279.626 264.463 271.965 267.362 271.965 270.938C271.965 271.128 271.987 271.316 272.029 271.502C272.785 268.723 280.129 266.544 289.076 266.544C298.023 266.544 305.367 268.723 306.123 271.502Z" fill="#FFC234"/>
<path d="M289.076 278.378C300.697 278.378 310.118 274.755 310.118 270.285V262.192C310.118 266.534 300.697 270.054 289.076 270.054C277.455 270.054 268.034 266.534 268.034 262.192V270.285C268.034 274.755 277.455 278.378 289.076 278.378Z" fill="#FFE29E"/>
<path d="M289.074 278.379V270.055C288.45 270.054 287.833 270.044 287.224 270.024V278.348C287.833 278.368 288.45 278.379 289.074 278.379Z" fill="#FFCE5B"/>
<path d="M286.299 278.309V269.987C285.673 269.956 285.056 269.915 284.449 269.864V278.183C285.056 278.235 285.673 278.277 286.299 278.309Z" fill="#FFCE5B"/>
<path d="M283.524 278.094V269.778C282.895 269.714 282.278 269.639 281.674 269.554V277.864C282.278 277.951 282.895 278.028 283.524 278.094Z" fill="#FFCE5B"/>
<path d="M280.749 277.721V269.415C280.116 269.313 279.499 269.2 278.899 269.076V277.371C279.499 277.499 280.116 277.615 280.749 277.721Z" fill="#FFCE5B"/>
<path d="M277.974 277.162V268.873C277.334 268.724 276.717 268.562 276.125 268.389V276.665C276.717 276.843 277.334 277.009 277.974 277.162Z" fill="#FFCE5B"/>
<path d="M275.2 276.37V268.103C274.546 267.889 273.928 267.659 273.35 267.416V275.663C273.928 275.913 274.546 276.149 275.2 276.37Z" fill="#FFCE5B"/>
<path d="M272.425 275.235V267C271.736 266.667 271.116 266.313 270.575 265.941V274.145C271.116 274.528 271.736 274.892 272.425 275.235Z" fill="#FFCE5B"/>
<path d="M269.65 273.402V265.22C268.907 264.554 268.401 263.843 268.172 263.099H268.034V270.286C268.034 271.39 268.609 272.443 269.65 273.402Z" fill="#FFCE5B"/>
<path d="M291.848 278.309C291.24 278.34 290.623 278.361 289.999 278.371V270.047C290.623 270.037 291.24 270.017 291.848 269.987V278.309Z" fill="#FFCE5B"/>
<path d="M294.623 278.095C294.017 278.158 293.4 278.212 292.773 278.254V269.934C293.4 269.892 294.017 269.84 294.623 269.778V278.095Z" fill="#FFCE5B"/>
<path d="M297.398 277.721C296.795 277.821 296.178 277.911 295.548 277.989V269.676C296.178 269.6 296.795 269.513 297.398 269.416V277.721Z" fill="#FFCE5B"/>
<path d="M300.173 277.163C299.576 277.306 298.958 277.438 298.323 277.558V269.257C298.958 269.14 299.576 269.012 300.173 268.874V277.163Z" fill="#FFCE5B"/>
<path d="M302.948 276.371C302.359 276.57 301.742 276.756 301.098 276.929V268.646C301.742 268.478 302.359 268.297 302.948 268.104V276.371Z" fill="#FFCE5B"/>
<path d="M305.722 275.237C305.152 275.52 304.534 275.788 303.873 276.04V267.782C304.534 267.538 305.152 267.277 305.722 267.002V275.237Z" fill="#FFCE5B"/>
<path d="M308.497 273.406C307.988 273.875 307.367 274.321 306.647 274.74V266.519C307.367 266.112 307.988 265.679 308.497 265.224V273.406Z" fill="#FFCE5B"/>
<path d="M310.118 263.099V270.286C310.118 271.002 309.876 271.696 309.422 272.358V264.205C309.676 263.846 309.864 263.477 309.98 263.099H310.118Z" fill="#FFCE5B"/>
<path d="M289.075 278.378C277.454 278.378 268.033 274.754 268.033 270.285C268.025 270.593 268.033 271.21 268.195 271.903C268.49 272.503 268.945 273.073 269.531 273.606C270.625 274.6 272.194 275.485 274.113 276.223C277.954 277.7 283.244 278.609 289.075 278.609C294.907 278.609 300.197 277.7 304.038 276.223C305.957 275.485 307.526 274.6 308.62 273.606C309.023 273.239 309.364 272.856 309.633 272.456C309.802 272.207 310.116 271.537 310.116 270.497C310.069 271.175 309.841 271.653 309.633 272.019C307.569 275.655 299.149 278.378 289.075 278.378Z" fill="#FFC234"/>
<path d="M309.887 263.899C309.591 264.435 309.16 264.946 308.617 265.425C307.524 266.391 305.955 267.25 304.036 267.967C300.196 269.402 294.907 270.285 289.076 270.285C283.245 270.285 277.956 269.402 274.116 267.967C272.197 267.25 270.628 266.391 269.534 265.425C268.992 264.946 268.561 264.435 268.265 263.899C268.087 263.256 268.038 262.541 268.034 262.228C268.034 262.216 268.034 262.204 268.034 262.192C268.034 262.203 268.034 262.215 268.034 262.228C268.039 262.613 268.117 262.991 268.265 263.361C269.777 267.149 278.518 270.054 289.076 270.054C299.633 270.054 308.375 267.149 309.887 263.361C310.039 262.98 310.118 262.589 310.118 262.192C310.118 262.482 310.118 263.232 309.887 263.899Z" fill="white"/>
<path d="M310.118 262.192C310.118 266.534 300.697 270.054 289.075 270.054C277.454 270.054 268.033 266.534 268.033 262.192C268.033 257.85 277.454 254.33 289.075 254.33C300.697 254.33 310.118 257.85 310.118 262.192Z" fill="#FFCE5B"/>
<path d="M310.104 262.481C310.113 262.385 310.118 262.289 310.118 262.192C310.118 257.85 300.697 254.33 289.075 254.33C277.454 254.33 268.033 257.85 268.033 262.192C268.033 262.281 268.037 262.37 268.045 262.458C268.451 258.188 277.71 254.774 289.073 254.774C300.456 254.774 309.727 258.2 310.104 262.481Z" fill="#FFF8EA"/>
<path d="M306.187 262.193C306.187 265.769 298.526 268.668 289.076 268.668C279.626 268.668 271.965 265.769 271.965 262.193C271.965 258.617 279.626 255.719 289.076 255.719C298.526 255.719 306.187 258.617 306.187 262.193Z" fill="#FFCE5B"/>
<path d="M306.183 262.045C306.032 265.446 298.43 268.185 289.074 268.185C279.754 268.185 272.175 265.467 271.967 262.084C271.966 262.12 271.965 262.156 271.965 262.192C271.965 265.768 279.626 268.667 289.076 268.667C298.526 268.667 306.187 265.768 306.187 262.192C306.187 262.143 306.186 262.094 306.183 262.045Z" fill="#FFC234"/>
<path d="M293.241 261.756C292.597 261.781 292.096 261.886 291.736 262.073C291.375 262.26 291.041 262.577 290.731 263.023C290.422 263.47 290.107 263.884 289.787 264.265C289.466 264.645 289.091 264.977 288.662 265.26C288.232 265.542 287.73 265.766 287.157 265.929C286.584 266.093 285.886 266.19 285.063 266.221C283.686 266.273 282.544 266.063 281.637 265.591C280.722 265.119 280.175 264.464 279.997 263.627L277.419 263.724L277.379 262.667L280.006 262.568C280.196 261.748 280.787 261.088 281.78 260.589C282.764 260.086 284.03 259.805 285.578 259.747L285.663 261.995C284.816 262.027 284.167 262.14 283.718 262.335C283.268 262.529 283.049 262.791 283.062 263.119C283.073 263.412 283.253 263.634 283.601 263.785C283.941 263.932 284.408 263.994 285.003 263.972C285.606 263.949 286.083 263.838 286.434 263.638C286.778 263.439 287.105 263.127 287.415 262.702C287.717 262.278 288.037 261.877 288.373 261.5C288.701 261.119 289.081 260.787 289.51 260.505C289.94 260.222 290.446 259.994 291.027 259.821C291.608 259.648 292.309 259.547 293.132 259.516C294.525 259.463 295.671 259.662 296.569 260.112C297.467 260.558 298.005 261.193 298.183 262.017L300.639 261.924L300.679 262.982L298.21 263.075C298.059 264.049 297.48 264.814 296.473 265.372C295.458 265.925 294.107 266.234 292.421 266.297L292.336 264.055C293.265 264.021 293.97 263.883 294.45 263.643C294.922 263.399 295.151 263.07 295.135 262.658C295.124 262.356 294.952 262.125 294.62 261.964C294.279 261.804 293.82 261.735 293.241 261.756Z" fill="white"/>
<path d="M306.123 262.758C306.166 262.571 306.187 262.384 306.187 262.193C306.187 258.617 298.526 255.719 289.076 255.719C279.626 255.719 271.965 258.617 271.965 262.193C271.965 262.384 271.987 262.571 272.029 262.758C272.785 259.978 280.129 257.8 289.076 257.8C298.023 257.8 305.367 259.978 306.123 262.758Z" fill="#FFC234"/>
<path d="M289.075 269.631C300.697 269.631 310.118 266.008 310.118 261.538V253.445C310.118 257.787 300.697 261.307 289.075 261.307C277.454 261.307 268.033 257.787 268.033 253.445V261.538C268.033 266.008 277.454 269.631 289.075 269.631Z" fill="#FFE29E"/>
<path d="M289.073 269.632V261.308C288.45 261.307 287.833 261.297 287.223 261.277V269.601C287.833 269.621 288.45 269.632 289.073 269.632Z" fill="#FFCE5B"/>
<path d="M286.298 269.562V261.24C285.673 261.209 285.056 261.168 284.449 261.117V269.436C285.056 269.488 285.673 269.53 286.298 269.562Z" fill="#FFCE5B"/>
<path d="M283.524 269.347V261.031C282.895 260.967 282.278 260.892 281.674 260.807V269.117C282.278 269.204 282.895 269.281 283.524 269.347Z" fill="#FFCE5B"/>
<path d="M280.749 268.974V260.668C280.115 260.566 279.498 260.453 278.899 260.329V268.624C279.498 268.752 280.115 268.868 280.749 268.974Z" fill="#FFCE5B"/>
<path d="M277.974 268.415V260.126C277.334 259.977 276.716 259.815 276.124 259.642V267.918C276.716 268.096 277.334 268.262 277.974 268.415Z" fill="#FFCE5B"/>
<path d="M275.199 267.623V259.356C274.545 259.142 273.928 258.912 273.349 258.669V266.916C273.928 267.166 274.545 267.402 275.199 267.623Z" fill="#FFCE5B"/>
<path d="M272.424 266.488V258.253C271.735 257.92 271.116 257.566 270.575 257.194V265.398C271.116 265.781 271.735 266.145 272.424 266.488Z" fill="#FFCE5B"/>
<path d="M269.65 264.655V256.473C268.906 255.807 268.4 255.096 268.172 254.352H268.033V261.539C268.033 262.643 268.608 263.696 269.65 264.655Z" fill="#FFCE5B"/>
<path d="M291.848 269.562C291.239 269.593 290.622 269.614 289.998 269.624V261.3C290.622 261.29 291.239 261.27 291.848 261.24V269.562Z" fill="#FFCE5B"/>
<path d="M294.623 269.348C294.017 269.411 293.4 269.465 292.773 269.507V261.187C293.4 261.145 294.017 261.093 294.623 261.031V269.348Z" fill="#FFCE5B"/>
<path d="M297.398 268.974C296.795 269.074 296.178 269.164 295.548 269.242V260.929C296.178 260.853 296.795 260.766 297.398 260.669V268.974Z" fill="#FFCE5B"/>
<path d="M300.172 268.416C299.575 268.559 298.958 268.691 298.322 268.811V260.51C298.958 260.393 299.575 260.265 300.172 260.127V268.416Z" fill="#FFCE5B"/>
<path d="M302.947 267.624C302.359 267.823 301.741 268.009 301.097 268.182V259.899C301.741 259.731 302.359 259.55 302.947 259.357V267.624Z" fill="#FFCE5B"/>
<path d="M305.722 266.49C305.152 266.773 304.533 267.041 303.872 267.293V259.035C304.533 258.791 305.152 258.53 305.722 258.255V266.49Z" fill="#FFCE5B"/>
<path d="M308.497 264.659C307.987 265.128 307.366 265.574 306.647 265.993V257.772C307.366 257.365 307.987 256.932 308.497 256.477V264.659Z" fill="#FFCE5B"/>
<path d="M310.118 254.352V261.539C310.118 262.255 309.876 262.949 309.422 263.611V255.458C309.676 255.099 309.863 254.73 309.979 254.352H310.118Z" fill="#FFCE5B"/>
<path d="M289.075 269.631C277.454 269.631 268.033 266.008 268.033 261.538C268.025 261.846 268.033 262.463 268.195 263.156C268.49 263.756 268.945 264.326 269.531 264.859C270.625 265.853 272.194 266.738 274.113 267.476C277.954 268.953 283.244 269.862 289.075 269.862C294.907 269.862 300.197 268.953 304.038 267.476C305.957 266.738 307.526 265.853 308.62 264.859C309.023 264.493 309.364 264.109 309.633 263.71C309.802 263.46 310.116 262.791 310.116 261.75C310.069 262.428 309.841 262.906 309.633 263.272C307.569 266.908 299.149 269.631 289.075 269.631Z" fill="#FFC234"/>
<path d="M309.886 255.152C309.59 255.689 309.16 256.199 308.617 256.678C307.523 257.644 305.954 258.504 304.035 259.221C300.195 260.655 294.906 261.538 289.075 261.538C283.244 261.538 277.955 260.655 274.115 259.221C272.196 258.504 270.627 257.644 269.534 256.678C268.991 256.199 268.561 255.689 268.264 255.152C268.087 254.51 268.037 253.794 268.033 253.481C268.033 253.469 268.033 253.457 268.033 253.445C268.033 253.456 268.033 253.468 268.033 253.481C268.038 253.866 268.117 254.244 268.264 254.614C269.776 258.402 278.518 261.307 289.075 261.307C299.633 261.307 308.375 258.402 309.886 254.614C310.039 254.233 310.118 253.842 310.118 253.445C310.118 253.735 310.118 254.485 309.886 255.152Z" fill="white"/>
<path d="M310.118 253.445C310.118 257.787 300.697 261.307 289.075 261.307C277.454 261.307 268.033 257.787 268.033 253.445C268.033 249.103 277.454 245.583 289.075 245.583C300.697 245.583 310.118 249.103 310.118 253.445Z" fill="#FFCE5B"/>
<path d="M310.104 253.733C310.113 253.638 310.118 253.542 310.118 253.445C310.118 249.103 300.697 245.583 289.075 245.583C277.454 245.583 268.033 249.103 268.033 253.445C268.033 253.534 268.037 253.623 268.045 253.711C268.451 249.441 277.71 246.027 289.073 246.027C300.456 246.027 309.727 249.453 310.104 253.733Z" fill="#FFF8EA"/>
<path d="M306.187 253.446C306.187 257.022 298.526 259.921 289.076 259.921C279.625 259.921 271.964 257.022 271.964 253.446C271.964 249.87 279.625 246.972 289.076 246.972C298.526 246.972 306.187 249.87 306.187 253.446Z" fill="#FFCE5B"/>
<path d="M306.182 253.296C306.031 256.697 298.429 259.436 289.074 259.436C279.754 259.436 272.174 256.718 271.967 253.335C271.965 253.371 271.964 253.407 271.964 253.443C271.964 257.019 279.625 259.918 289.076 259.918C298.526 259.918 306.187 257.019 306.187 253.443C306.187 253.394 306.185 253.345 306.182 253.296Z" fill="#FFC234"/>
<path d="M293.241 253.01C292.597 253.034 292.096 253.139 291.736 253.326C291.375 253.513 291.041 253.83 290.731 254.277C290.422 254.723 290.107 255.137 289.787 255.518C289.466 255.899 289.091 256.23 288.662 256.513C288.232 256.796 287.73 257.019 287.157 257.182C286.584 257.346 285.886 257.443 285.063 257.474C283.686 257.526 282.544 257.316 281.637 256.844C280.722 256.372 280.175 255.718 279.997 254.881L277.419 254.978L277.379 253.92L280.006 253.821C280.196 253.001 280.787 252.342 281.78 251.842C282.764 251.339 284.03 251.058 285.578 251L285.663 253.248C284.816 253.28 284.167 253.393 283.718 253.588C283.268 253.783 283.049 254.044 283.062 254.372C283.073 254.665 283.253 254.887 283.601 255.038C283.941 255.185 284.408 255.247 285.003 255.225C285.606 255.202 286.083 255.091 286.434 254.891C286.778 254.692 287.105 254.38 287.415 253.955C287.717 253.531 288.037 253.13 288.373 252.753C288.701 252.372 289.081 252.04 289.51 251.758C289.94 251.475 290.446 251.247 291.027 251.075C291.608 250.902 292.309 250.8 293.132 250.769C294.525 250.716 295.671 250.915 296.569 251.365C297.467 251.811 298.005 252.446 298.183 253.27L300.639 253.177L300.679 254.235L298.21 254.328C298.059 255.302 297.48 256.068 296.473 256.625C295.458 257.178 294.107 257.487 292.421 257.55L292.336 255.309C293.265 255.274 293.97 255.136 294.45 254.896C294.922 254.652 295.151 254.323 295.135 253.911C295.124 253.609 294.952 253.378 294.62 253.218C294.279 253.057 293.82 252.988 293.241 253.01Z" fill="white"/>
<path d="M306.123 254.011C306.165 253.825 306.187 253.637 306.187 253.446C306.187 249.87 298.526 246.972 289.076 246.972C279.625 246.972 271.964 249.87 271.964 253.446C271.964 253.637 271.986 253.825 272.029 254.011C272.785 251.231 280.128 249.053 289.076 249.053C298.023 249.053 305.366 251.231 306.123 254.011Z" fill="#FFC234"/>
<path d="M303.085 280.613C310.585 287.677 321.376 288.401 327.189 282.231C333.002 276.059 331.794 265.546 324.294 258.482C314.542 249.296 305.846 250.478 300.033 256.649C294.219 262.82 295.586 273.549 303.085 280.613Z" fill="#FFC234"/>
<path d="M305.153 280.086C312.652 287.15 323.444 287.874 329.257 281.704C335.07 275.532 333.703 264.803 326.204 257.739C318.704 250.675 307.914 249.951 302.1 256.122C296.287 262.293 297.654 273.022 305.153 280.086Z" fill="#FFCE5B"/>
<path d="M306.47 256.349L328.08 277.822L325.12 280.919L303.648 259.102L306.47 256.349Z" fill="#FFC234"/>
<path d="M308.259 255.937L328.974 276.308C332.829 271.353 325.877 261.236 323.744 259.653C317.467 253.597 310.805 254.652 308.259 255.937Z" fill="#FFC234"/>
<path fill-rule="evenodd" clip-rule="evenodd" d="M326.427 279.037C322.158 283.568 313.75 283.353 307.565 277.526C301.38 271.7 300.663 263.319 304.931 258.788C309.2 254.257 317.608 254.472 323.793 260.299C329.978 266.125 330.695 274.506 326.427 279.037ZM327.729 280.263C322.571 285.74 312.993 285.097 306.338 278.829C299.683 272.559 298.469 263.038 303.629 257.561C308.787 252.084 318.364 252.727 325.02 258.996C331.675 265.265 332.888 274.787 327.729 280.263Z" fill="#FFE7AD"/>
<path fill-rule="evenodd" clip-rule="evenodd" d="M309.501 258.781L308.68 259.26C308.594 259.31 308.569 259.42 308.623 259.504L309.295 260.559C307.313 262.054 306.37 264.388 307.138 266.593C308.471 270.424 313.801 269.976 314.604 269.736C314.764 269.693 314.92 269.653 315.071 269.618L317.836 273.953C316.654 274.354 315.19 274.462 314.051 274.446C313.859 274.444 313.701 274.59 313.694 274.78L313.614 276.741C313.607 276.927 313.747 277.091 313.934 277.107C316.592 277.341 318.522 276.624 319.327 276.292L320.901 278.759C320.954 278.842 321.062 278.868 321.144 278.818L322.024 278.279C322.107 278.229 322.132 278.119 322.078 278.036L320.541 275.645C326.034 271.948 321.748 264.62 316.179 266.169C315.631 266.321 315.132 266.437 314.678 266.522L311.97 262.31C313.052 261.919 314.361 261.75 315.386 261.711C315.574 261.704 315.723 261.555 315.726 261.367C315.733 260.743 315.736 259.855 315.719 259.357C315.713 259.194 315.586 259.06 315.421 259.041C313.513 258.817 311.791 259.162 310.402 259.869L309.741 258.842C309.689 258.761 309.583 258.734 309.501 258.781ZM310.074 265.29C309.66 264.223 310.037 263.453 310.792 262.906L313.213 266.704C310.91 266.814 310.294 265.858 310.074 265.29ZM319.058 273.338L316.518 269.385C318.88 269.207 319.626 270.311 319.795 270.877C320.135 272.007 319.774 272.795 319.058 273.338Z" fill="white"/>
</svg>
