<svg width="336" height="250" viewBox="0 0 336 250" fill="none" xmlns="http://www.w3.org/2000/svg">
<path d="M20.7598 35.6428C20.7598 32.1171 23.6196 29.259 27.1474 29.259H288.414C291.942 29.259 294.802 32.1171 294.802 35.6428V188.893C294.802 193.311 291.22 196.893 286.802 196.893H28.7598C24.3415 196.893 20.7598 193.311 20.7598 188.893V35.6428Z" fill="#93BEFF"/>
<path d="M27.6797 43.7556C27.6797 40.2299 30.5395 37.3718 34.0673 37.3718H282.254C285.781 37.3718 288.641 40.2299 288.641 43.7556V186.06H27.6797V43.7556Z" fill="white"/>
<path d="M68.1899 53.3923C68.1899 52.8047 68.6666 52.3284 69.2545 52.3284H170.13C171.599 52.3284 172.791 53.5192 172.791 54.9883V123.179C172.791 124.648 171.599 125.839 170.13 125.839H69.2545C68.6666 125.839 68.1899 125.363 68.1899 124.775V53.3923Z" fill="#0066FF"/>
<path d="M64.4087 50.0063C64.4087 49.4187 64.8853 48.9424 65.4733 48.9424H166.348C167.818 48.9424 169.01 50.1333 169.01 51.6023V119.793C169.01 121.262 167.818 122.453 166.348 122.453H65.4733C64.8853 122.453 64.4087 121.977 64.4087 121.389V50.0063Z" fill="#CCE0FF"/>
<path d="M76.1729 63.2322C76.1729 62.9697 76.3858 62.7568 76.6485 62.7568C76.9112 62.7568 77.1241 62.9697 77.1241 63.2322V108.547C77.1241 108.81 76.9112 109.023 76.6485 109.023C76.3858 109.023 76.1729 108.81 76.1729 108.547V63.2322Z" fill="white"/>
<path d="M76.6485 109.022C76.3858 109.022 76.1729 108.809 76.1729 108.547C76.1729 108.284 76.3858 108.071 76.6485 108.071H159.724C159.987 108.071 160.2 108.284 160.2 108.547C160.2 108.809 159.987 109.022 159.724 109.022H76.6485Z" fill="white"/>
<path d="M138.638 74.4824C138.638 73.7823 139.206 73.2148 139.906 73.2148H142.126C142.826 73.2148 143.394 73.7824 143.394 74.4824V104.587C143.394 105.287 142.826 105.855 142.126 105.855H139.906C139.206 105.855 138.638 105.287 138.638 104.587V74.4824Z" fill="#0066FF"/>
<path d="M124.369 80.8186C124.369 80.1185 124.937 79.551 125.637 79.551H127.857C128.557 79.551 129.125 80.1185 129.125 80.8186V104.585C129.125 105.285 128.557 105.853 127.857 105.853H125.637C124.937 105.853 124.369 105.285 124.369 104.585V80.8186Z" fill="white"/>
<path d="M110.102 93.4954C110.102 92.7953 110.669 92.2278 111.37 92.2278H113.589C114.29 92.2278 114.858 92.7953 114.858 93.4954V104.587C114.858 105.287 114.29 105.855 113.589 105.855H111.37C110.669 105.855 110.102 105.287 110.102 104.587V93.4954Z" fill="#0066FF"/>
<path d="M96.4663 78.9172C96.4663 78.2172 97.0342 77.6497 97.7346 77.6497H99.9542C100.655 77.6497 101.223 78.2172 101.223 78.9172V104.585C101.223 105.285 100.655 105.853 99.9542 105.853H97.7346C97.0342 105.853 96.4663 105.285 96.4663 104.585V78.9172Z" fill="white"/>
<path d="M82.1973 88.1072C82.1973 87.4071 82.7651 86.8396 83.4656 86.8396H85.6852C86.3857 86.8396 86.9535 87.4071 86.9535 88.1072V105.22C86.9535 105.92 86.3857 106.488 85.6852 106.488H83.4656C82.7651 106.488 82.1973 105.92 82.1973 105.22V88.1072Z" fill="#0066FF"/>
<path d="M152.907 67.8269C152.907 67.1268 153.475 66.5593 154.176 66.5593H156.395C157.096 66.5593 157.663 67.1268 157.663 67.8269V104.586C157.663 105.286 157.096 105.854 156.395 105.854H154.176C153.475 105.854 152.907 105.286 152.907 104.586V67.8269Z" fill="white"/>
<path d="M156.395 63.7065C156.395 64.4066 155.827 64.9741 155.126 64.9741C154.764 64.9741 154.437 64.8224 154.206 64.5791L142.439 70.2611C142.441 70.2942 142.443 70.3277 142.443 70.3615C142.443 71.0615 141.875 71.629 141.174 71.629C140.831 71.629 140.519 71.4923 140.29 71.2704L128.154 76.7957C128.167 76.8674 128.173 76.9411 128.173 77.0164C128.173 77.7165 127.606 78.284 126.905 78.284C126.66 78.284 126.43 78.2142 126.236 78.0935L114.159 89.6146C114.199 89.7386 114.221 89.8709 114.221 90.0084C114.221 90.7084 113.653 91.2759 112.953 91.2759C112.253 91.2759 111.685 90.7084 111.685 90.0084C111.685 89.8028 111.734 89.6086 111.821 89.4368L99.4232 74.2626C99.3569 74.1816 99.2811 74.1127 99.1985 74.0564C99.0418 74.1257 98.8683 74.1643 98.6858 74.1643C98.4648 74.1643 98.257 74.1078 98.0761 74.0084C98.0416 74.0279 98.008 74.0494 97.9752 74.073L85.9672 82.7402C85.9899 82.8353 86.002 82.9345 86.002 83.0365C86.002 83.7366 85.4341 84.3041 84.7337 84.3041C84.0332 84.3041 83.4653 83.7366 83.4653 83.0365C83.4653 82.3365 84.0332 81.769 84.7337 81.769C85.1019 81.769 85.4336 81.9258 85.6653 82.1764L97.6042 73.559C97.4858 73.3663 97.4175 73.1395 97.4175 72.8967C97.4175 72.1966 97.9853 71.6291 98.6858 71.6291C99.3863 71.6291 99.9542 72.1966 99.9542 72.8967C99.9542 73.1686 99.8685 73.4206 99.7226 73.627L112.246 88.9557C112.448 88.82 112.691 88.7408 112.953 88.7408C113.283 88.7408 113.583 88.8665 113.809 89.0726L113.816 89.0652L125.798 77.6352C125.695 77.4522 125.637 77.2411 125.637 77.0164C125.637 76.3164 126.205 75.7489 126.905 75.7489C127.303 75.7489 127.659 75.9322 127.891 76.219L139.959 70.7248C139.925 70.6097 139.906 70.4877 139.906 70.3615C139.906 69.6614 140.474 69.0939 141.174 69.0939C141.615 69.0939 142.002 69.318 142.23 69.6582L153.898 64.0241C153.872 63.9226 153.858 63.8162 153.858 63.7065C153.858 63.0065 154.426 62.439 155.126 62.439C155.827 62.439 156.395 63.0065 156.395 63.7065Z" fill="#0066FF"/>
<path d="M196.492 132.851C196.492 134.32 197.684 135.511 199.154 135.511H280.641C282.111 135.511 283.303 134.32 283.303 132.851V85.969C283.303 84.5 282.111 83.3091 280.641 83.3091H199.154C197.684 83.3091 196.492 84.5 196.492 85.969V132.851Z" fill="#2C74F5"/>
<path d="M193.492 129.851C193.492 131.32 194.684 132.511 196.154 132.511H277.641C279.111 132.511 280.303 131.32 280.303 129.851V82.969C280.303 81.5 279.111 80.3091 277.641 80.3091H196.154C194.684 80.3091 193.492 81.5 193.492 82.969V129.851Z" fill="#E4EAFF"/>
<path d="M209.576 106.577C209.342 106.816 209.086 106.936 208.808 106.936C208.377 106.936 208.036 106.763 207.787 106.418C207.54 106.069 207.417 105.606 207.417 105.026C207.417 104.652 207.487 104.311 207.627 104.002C207.767 103.69 207.962 103.448 208.212 103.277C208.464 103.105 208.745 103.02 209.054 103.02C209.374 103.02 209.658 103.115 209.908 103.304C210.157 103.494 210.351 103.767 210.489 104.122C210.626 104.476 210.695 104.878 210.695 105.33V105.732C210.695 106.698 210.482 107.454 210.056 107.999C209.632 108.542 209.031 108.819 208.251 108.829H208.138V107.879H208.212C208.643 107.876 208.967 107.764 209.183 107.544C209.401 107.323 209.532 107.001 209.576 106.577ZM209.089 106.071C209.302 106.071 209.47 105.925 209.592 105.634V105.128C209.592 104.756 209.541 104.465 209.44 104.255C209.339 104.042 209.207 103.935 209.046 103.935C208.888 103.935 208.759 104.041 208.66 104.251C208.564 104.459 208.516 104.713 208.516 105.015C208.516 105.342 208.567 105.601 208.668 105.79C208.769 105.977 208.91 106.071 209.089 106.071Z" fill="#0066FF"/>
<path d="M215.572 106.425C215.572 107.21 215.429 107.81 215.143 108.225C214.86 108.641 214.454 108.849 213.927 108.849C213.404 108.849 213 108.648 212.714 108.245C212.431 107.84 212.284 107.26 212.274 106.507V105.436C212.274 104.654 212.415 104.056 212.698 103.643C212.982 103.228 213.389 103.02 213.919 103.02C214.449 103.02 214.856 103.225 215.139 103.635C215.422 104.046 215.567 104.632 215.572 105.393V106.425ZM214.465 105.276C214.465 104.829 214.42 104.494 214.332 104.271C214.244 104.047 214.106 103.935 213.919 103.935C213.568 103.935 213.386 104.345 213.373 105.163V106.577C213.373 107.034 213.417 107.375 213.505 107.598C213.596 107.822 213.737 107.933 213.927 107.933C214.106 107.933 214.238 107.829 214.324 107.622C214.413 107.411 214.459 107.09 214.465 106.659V105.276Z" fill="#0066FF"/>
<path d="M217.119 104.189C217.119 103.843 217.214 103.561 217.403 103.343C217.596 103.125 217.854 103.016 218.179 103.016C218.504 103.016 218.763 103.124 218.955 103.339C219.15 103.552 219.248 103.841 219.248 104.204V104.489C219.248 104.839 219.151 105.121 218.959 105.334C218.767 105.547 218.509 105.654 218.187 105.654C217.867 105.654 217.609 105.547 217.411 105.334C217.216 105.121 217.119 104.832 217.119 104.465V104.189ZM217.836 104.489C217.836 104.645 217.869 104.769 217.934 104.863C218.001 104.954 218.086 104.999 218.187 104.999C218.291 104.999 218.373 104.951 218.433 104.855C218.495 104.759 218.526 104.633 218.526 104.477V104.189C218.526 104.038 218.495 103.915 218.433 103.819C218.37 103.72 218.286 103.67 218.179 103.67C218.075 103.67 217.992 103.72 217.93 103.819C217.867 103.915 217.836 104.042 217.836 104.2V104.489ZM219.357 107.38C219.357 107.029 219.454 106.747 219.649 106.534C219.844 106.319 220.101 106.211 220.421 106.211C220.743 106.211 221.002 106.317 221.197 106.531C221.392 106.741 221.489 107.031 221.489 107.399V107.684C221.489 108.032 221.394 108.314 221.205 108.529C221.015 108.742 220.756 108.849 220.429 108.849C220.099 108.849 219.838 108.741 219.645 108.526C219.453 108.31 219.357 108.024 219.357 107.668V107.38ZM220.078 107.684C220.078 107.829 220.112 107.951 220.179 108.05C220.249 108.149 220.333 108.198 220.429 108.198C220.645 108.198 220.758 108.044 220.768 107.735V107.38C220.768 107.227 220.736 107.103 220.671 107.01C220.608 106.914 220.525 106.866 220.421 106.866C220.192 106.866 220.078 107.064 220.078 107.462V107.684ZM218.386 108.346L217.863 108.05L220.191 103.616L220.717 103.912L218.386 108.346Z" fill="#0066FF"/>
<path d="M250.789 103.039V103.974H250.727C250.313 103.977 249.984 104.101 249.74 104.348C249.498 104.592 249.352 104.935 249.3 105.377C249.536 105.106 249.832 104.971 250.188 104.971C250.599 104.971 250.927 105.147 251.171 105.497C251.418 105.848 251.541 106.316 251.541 106.9C251.541 107.272 251.471 107.607 251.331 107.905C251.19 108.204 250.993 108.437 250.738 108.603C250.486 108.767 250.2 108.848 249.88 108.848C249.366 108.848 248.953 108.642 248.641 108.229C248.331 107.816 248.177 107.26 248.177 106.561V106.152C248.177 105.526 248.274 104.978 248.469 104.508C248.667 104.038 248.95 103.676 249.319 103.425C249.691 103.17 250.124 103.041 250.617 103.039H250.789ZM249.842 105.883C249.701 105.883 249.583 105.927 249.487 106.016C249.393 106.104 249.323 106.213 249.276 106.343V106.74C249.276 107.14 249.329 107.439 249.436 107.637C249.543 107.834 249.683 107.933 249.857 107.933C250.034 107.933 250.175 107.838 250.282 107.648C250.389 107.456 250.442 107.211 250.442 106.912C250.442 106.608 250.386 106.361 250.274 106.172C250.165 105.979 250.021 105.883 249.842 105.883Z" fill="#0066FF"/>
<path d="M256.293 106.425C256.293 107.209 256.15 107.809 255.864 108.225C255.581 108.641 255.175 108.848 254.648 108.848C254.125 108.848 253.721 108.647 253.435 108.244C253.152 107.839 253.005 107.26 252.995 106.507V105.435C252.995 104.653 253.136 104.056 253.42 103.643C253.703 103.227 254.11 103.019 254.64 103.019C255.17 103.019 255.577 103.224 255.86 103.635C256.144 104.045 256.288 104.631 256.293 105.392V106.425ZM255.186 105.275C255.186 104.829 255.142 104.493 255.053 104.27C254.965 104.047 254.827 103.935 254.64 103.935C254.289 103.935 254.107 104.344 254.094 105.162V106.577C254.094 107.034 254.138 107.374 254.227 107.598C254.318 107.821 254.458 107.933 254.648 107.933C254.827 107.933 254.96 107.829 255.045 107.621C255.134 107.411 255.181 107.09 255.186 106.659V105.275Z" fill="#0066FF"/>
<path d="M257.84 104.188C257.84 103.843 257.935 103.561 258.125 103.343C258.317 103.124 258.576 103.015 258.901 103.015C259.225 103.015 259.484 103.123 259.676 103.339C259.871 103.552 259.969 103.84 259.969 104.204V104.488C259.969 104.839 259.873 105.121 259.68 105.334C259.488 105.547 259.231 105.653 258.908 105.653C258.589 105.653 258.33 105.547 258.132 105.334C257.938 105.121 257.84 104.831 257.84 104.465V104.188ZM258.557 104.488C258.557 104.644 258.59 104.769 258.655 104.862C258.722 104.953 258.807 104.999 258.908 104.999C259.012 104.999 259.094 104.951 259.154 104.855C259.216 104.758 259.248 104.632 259.248 104.477V104.188C259.248 104.038 259.216 103.914 259.154 103.818C259.092 103.719 259.007 103.67 258.901 103.67C258.797 103.67 258.713 103.719 258.651 103.818C258.589 103.914 258.557 104.041 258.557 104.2V104.488ZM260.078 107.379C260.078 107.029 260.175 106.747 260.37 106.534C260.565 106.318 260.823 106.211 261.142 106.211C261.465 106.211 261.723 106.317 261.918 106.53C262.113 106.74 262.211 107.03 262.211 107.399V107.683C262.211 108.031 262.116 108.313 261.926 108.529C261.736 108.742 261.478 108.848 261.15 108.848C260.82 108.848 260.559 108.741 260.366 108.525C260.174 108.309 260.078 108.024 260.078 107.668V107.379ZM260.799 107.683C260.799 107.829 260.833 107.951 260.901 108.05C260.971 108.148 261.054 108.198 261.15 108.198C261.366 108.198 261.479 108.043 261.489 107.734V107.379C261.489 107.226 261.457 107.103 261.392 107.009C261.329 106.913 261.246 106.865 261.142 106.865C260.914 106.865 260.799 107.064 260.799 107.461V107.683ZM259.107 108.346L258.585 108.05L260.912 103.615L261.439 103.912L259.107 108.346Z" fill="#0066FF"/>
<path fill-rule="evenodd" clip-rule="evenodd" d="M255.657 90.3213C264.548 90.3213 271.756 97.5245 271.756 106.41C271.756 115.295 264.548 122.499 255.657 122.499C246.766 122.499 239.559 115.295 239.559 106.41C239.559 97.5245 246.766 90.3213 255.657 90.3213ZM255.657 87.6614C266.018 87.6614 274.417 96.0555 274.417 106.41C274.417 116.764 266.018 125.158 255.657 125.158C245.297 125.158 236.897 116.764 236.897 106.41C236.897 96.0555 245.297 87.6614 255.657 87.6614Z" fill="white"/>
<path fill-rule="evenodd" clip-rule="evenodd" d="M214.459 90.3213C223.35 90.3213 230.558 97.5245 230.558 106.41C230.558 115.295 223.35 122.499 214.459 122.499C205.568 122.499 198.361 115.295 198.361 106.41C198.361 97.5245 205.568 90.3213 214.459 90.3213ZM214.459 87.6614C224.82 87.6614 233.219 96.0555 233.219 106.41C233.219 116.764 224.82 125.158 214.459 125.158C204.098 125.158 195.699 116.764 195.699 106.41C195.699 96.0555 204.098 87.6614 214.459 87.6614Z" fill="white"/>
<path d="M278.53 149.588C275.406 150.789 275.646 152.47 276.367 154.151L284.057 173.364H310.73L318.179 154.151C319.381 151.51 318.179 150.718 316.257 149.588C312.172 147.187 291.025 144.786 278.53 149.588Z" fill="#2C74F5"/>
<path d="M284.538 145.264C284.538 149.827 286.941 165.918 289.584 172.882H306.405C307.606 170.961 310.436 155.111 312.412 146.225C312.893 144.064 311.691 143.998 309.769 143.823C307.126 143.583 292.467 143.103 288.142 143.103C285.066 143.103 284.538 143.926 284.538 145.264Z" fill="#0066FF"/>
<path d="M310.73 176.484C314.815 188.972 333.318 194.736 335 221.873C335 235.045 329.682 241.921 319.381 245.364C312.027 247.822 302.134 248.53 289.824 248.53C265.073 247.089 253.539 238.684 252.578 221.873C256.182 196.657 284.057 180.807 284.057 176.484H310.73Z" fill="#0066FF" stroke="#2C74F5"/>
<path d="M335 221.873C333.318 194.736 314.815 188.972 310.729 176.484C304.001 190.413 264.352 206.984 287.661 235.802C291.74 240.845 306.885 249.364 319.38 245.364C329.682 241.921 335 235.045 335 221.873Z" fill="#2C74F5"/>
<path fill-rule="evenodd" clip-rule="evenodd" d="M295.007 198.804C295.007 197.883 294.27 197.137 293.36 197.137C292.449 197.137 291.712 197.883 291.712 198.804V202.897C290.256 203.256 289.008 204.06 288.092 205.126C286.751 206.688 286.1 208.852 286.607 211.002C287.123 213.191 288.769 215.089 291.484 216.262C291.561 216.296 291.637 216.329 291.712 216.362V222.7C290.872 222.179 289.985 221.444 289.09 220.441C288.481 219.758 287.439 219.704 286.763 220.32C286.088 220.937 286.034 221.99 286.644 222.674C288.273 224.5 290.009 225.729 291.712 226.425V231.014C291.712 231.934 292.449 232.68 293.36 232.68C294.27 232.68 295.007 231.934 295.007 231.014V227.125C296.92 227.145 298.666 226.453 299.789 225.105C301.187 223.427 301.314 221.099 300.098 218.916C299.173 217.255 297.492 215.674 295.007 214.29V206.306C296.105 206.69 297.377 207.506 298.727 209.019C299.337 209.702 300.379 209.756 301.055 209.14C301.73 208.523 301.784 207.47 301.174 206.787C299.184 204.558 297.069 203.285 295.007 202.856V198.804ZM291.712 206.423C291.269 206.647 290.888 206.952 290.581 207.31C289.865 208.144 289.576 209.226 289.813 210.229C289.993 210.993 290.522 211.881 291.712 212.639V206.423ZM295.007 218.22V223.794C296.137 223.818 296.896 223.406 297.268 222.959C297.647 222.504 297.876 221.716 297.226 220.551C296.841 219.858 296.142 219.052 295.007 218.22Z" fill="white"/>
<path d="M310.009 173.123C305.203 172.403 291.987 172.167 284.297 173.123C281.654 173.451 281.894 177.687 284.297 177.927C290.305 178.647 304.002 178.647 310.009 177.687C312.868 177.23 313.133 173.59 310.009 173.123Z" fill="white"/>
<path d="M257.801 236.724C248.173 245.787 234.318 246.717 226.855 238.8C219.392 230.881 220.944 217.392 230.572 208.328C243.093 196.541 254.257 198.058 261.721 205.976C269.184 213.893 267.429 227.66 257.801 236.724Z" fill="#FFC234"/>
<path d="M255.146 236.048C245.518 245.111 231.663 246.041 224.2 238.123C216.737 230.205 218.492 216.438 228.12 207.374C237.749 198.311 251.602 197.381 259.066 205.299C266.529 213.217 264.774 226.984 255.146 236.048Z" fill="#FFCE5B"/>
<path d="M253.456 205.592L225.712 233.143L229.511 237.117L257.079 209.124L253.456 205.592Z" fill="#FFC234"/>
<path d="M251.159 205.062L224.563 231.201C219.615 224.843 228.539 211.862 231.278 209.831C239.337 202.06 247.89 203.414 251.159 205.062Z" fill="#FFC234"/>
<path fill-rule="evenodd" clip-rule="evenodd" d="M227.834 234.702C233.314 240.516 244.109 240.239 252.05 232.763C259.991 225.288 260.912 214.534 255.432 208.72C249.951 202.906 239.156 203.183 231.216 210.659C223.275 218.134 222.354 228.888 227.834 234.702ZM226.162 236.275C232.785 243.302 245.082 242.478 253.626 234.434C262.17 226.39 263.728 214.173 257.104 207.146C250.481 200.119 238.185 200.943 229.641 208.987C221.096 217.031 219.539 229.249 226.162 236.275Z" fill="#FFE7AD"/>
<path fill-rule="evenodd" clip-rule="evenodd" d="M248.897 208.327L247.837 207.721C247.727 207.658 247.589 207.7 247.529 207.814L246.788 209.237C243.853 207.994 240.653 208.445 238.694 210.712C235.29 214.65 239.21 220.286 239.992 221.024C240.143 221.175 240.287 221.322 240.424 221.468L237.378 227.321C236.175 226.265 235.114 224.708 234.401 223.432C234.28 223.217 234.016 223.135 233.8 223.249L231.569 224.419C231.357 224.53 231.265 224.791 231.367 225.01C232.813 228.112 234.849 229.797 235.735 230.479L234.002 233.811C233.944 233.922 233.985 234.06 234.093 234.118L235.257 234.751C235.366 234.811 235.504 234.767 235.562 234.654L237.233 231.413C244.871 235.145 250.267 225.681 244.97 220.486C244.449 219.975 243.999 219.495 243.613 219.045L246.558 213.334C247.688 214.285 248.717 215.631 249.417 216.744C249.546 216.949 249.807 217.02 250.017 216.902C250.717 216.509 251.706 215.943 252.248 215.605C252.426 215.493 252.493 215.266 252.408 215.072C251.433 212.807 249.944 211.116 248.266 210.025L248.984 208.631C249.04 208.522 249.003 208.387 248.897 208.327ZM242.028 213.139C242.948 211.994 244.047 211.919 245.14 212.407L242.471 217.533C240.87 215.046 241.538 213.748 242.028 213.139ZM238.847 228.284L241.612 222.926C243.325 225.437 242.578 226.974 242.056 227.525C241.018 228.627 239.91 228.732 238.847 228.284Z" fill="white"/>
<path d="M10.4348 0C4.67181 0 0 4.66915 0 10.4288C0 16.1885 4.67181 20.8577 10.4348 20.8577H34.4419C36.0127 20.8577 37.5024 20.5108 38.8386 19.8895L44.8764 23.5285L42.1211 17.4899C43.8319 15.6324 44.8767 13.1526 44.8767 10.4288C44.8767 4.66915 40.2049 0 34.4419 0H10.4348Z" fill="white"/>
<path d="M16.764 10.4284C16.764 11.6927 15.7248 12.7177 14.4428 12.7177C13.1608 12.7177 12.1216 11.6927 12.1216 10.4284C12.1216 9.1641 13.1608 8.13916 14.4428 8.13916C15.7248 8.13916 16.764 9.1641 16.764 10.4284Z" fill="#1E1E2D"/>
<path d="M24.7597 10.4284C24.7597 11.6927 23.7204 12.7177 22.4385 12.7177C21.1565 12.7177 20.1172 11.6927 20.1172 10.4284C20.1172 9.1641 21.1565 8.13916 22.4385 8.13916C23.7204 8.13916 24.7597 9.1641 24.7597 10.4284Z" fill="#1E1E2D"/>
<path d="M30.4335 12.7177C31.7155 12.7177 32.7547 11.6927 32.7547 10.4284C32.7547 9.1641 31.7155 8.13916 30.4335 8.13916C29.1515 8.13916 28.1123 9.1641 28.1123 10.4284C28.1123 11.6927 29.1515 12.7177 30.4335 12.7177Z" fill="#1E1E2D"/>
<path d="M79.9493 241.755L79.001 232.272H69.6982L72.8373 241.755H79.9493Z" fill="#FEBFAE"/>
<path d="M22.105 234.173L31.3508 224.695L22.1051 218.535L16.6523 231.093L22.105 234.173Z" fill="#FEBFAE"/>
<path d="M70.721 246.057C70.8253 247.239 71.7107 247.406 72.1404 247.342C73.6526 247.419 75.5457 247.489 77.5942 247.53C84.4402 247.667 93.0213 247.478 94.9166 246.103C95.2615 245.853 95.3439 245.551 95.2147 245.212C94.8596 244.279 92.9058 243.064 90.411 241.853C87.3335 240.359 83.4326 238.872 80.6937 237.932C80.2697 237.758 79.4513 237.56 79.5693 238.169C79.6197 238.814 79.4244 239.345 79.0697 239.767C77.7727 241.31 74.3449 241.389 73.0161 240.186C71.8806 239.157 71.3846 239.685 71.2785 240.077C71.0493 241.578 70.6168 244.875 70.721 246.057Z" fill="white"/>
<path d="M70.7217 246.057C70.826 247.239 71.7114 247.406 72.1411 247.342C73.6533 247.418 75.5464 247.489 77.5948 247.53C84.4409 247.667 93.022 247.478 94.9173 246.103C95.2622 245.852 95.3446 245.551 95.2154 245.211C92.9693 247.196 77.9504 246.602 70.7217 246.057Z" fill="#C4C4C4"/>
<path d="M70.7217 246.057C70.826 247.239 71.7114 247.406 72.1411 247.342C73.6533 247.418 75.5464 247.489 77.5948 247.53C84.4409 247.667 93.022 247.478 94.9173 246.103C95.2622 245.852 95.3446 245.551 95.2154 245.211C92.9693 247.196 77.9504 246.602 70.7217 246.057Z" fill="#0C1229"/>
<path d="M70.7217 246.057C70.826 247.239 71.7114 247.406 72.1411 247.342C73.6533 247.418 75.5464 247.489 77.5948 247.53C84.4409 247.667 93.022 247.478 94.9173 246.103C95.2622 245.852 95.3446 245.551 95.2154 245.211C92.9693 247.196 77.9504 246.602 70.7217 246.057Z" fill="#CCE0FF"/>
<path d="M14.759 231.844C14.264 232.923 14.9506 233.506 15.3557 233.663C16.6318 234.478 18.2419 235.475 20.0014 236.524C25.8817 240.03 33.4311 244.112 35.7592 243.854C36.1828 243.807 36.4038 243.586 36.4596 243.228C36.6128 242.242 35.5173 240.219 33.9495 237.933C32.0154 235.112 29.3626 231.89 27.4484 229.718C27.1665 229.357 26.553 228.781 26.3539 229.368C26.0785 229.953 25.6457 230.318 25.1286 230.509C23.2375 231.208 20.22 229.581 19.6614 227.878C19.184 226.423 18.4919 226.636 18.2056 226.924C17.263 228.114 15.254 230.765 14.759 231.844Z" fill="white"/>
<path d="M14.759 231.844C14.2641 232.923 14.9506 233.506 15.3558 233.663C16.6318 234.477 18.2419 235.475 20.0014 236.524C25.8818 240.03 33.4311 244.111 35.7592 243.854C36.1829 243.807 36.4039 243.586 36.4596 243.227C33.525 243.84 20.7698 235.894 14.759 231.844Z" fill="#C4C4C4"/>
<path d="M14.759 231.844C14.2641 232.923 14.9506 233.506 15.3558 233.663C16.6318 234.477 18.2419 235.475 20.0014 236.524C25.8818 240.03 33.4311 244.111 35.7592 243.854C36.1829 243.807 36.4039 243.586 36.4596 243.227C33.525 243.84 20.7698 235.894 14.759 231.844Z" fill="#0C1229"/>
<path d="M14.759 231.844C14.2641 232.923 14.9506 233.506 15.3558 233.663C16.6318 234.477 18.2419 235.475 20.0014 236.524C25.8818 240.03 33.4311 244.111 35.7592 243.854C36.1829 243.807 36.4039 243.586 36.4596 243.227C33.525 243.84 20.7698 235.894 14.759 231.844Z" fill="#CCE0FF"/>
<path d="M37.3725 188.477C39.2386 185.28 39.498 152.304 48.1821 140.114C58.7005 138.326 65.1025 150.808 64.3027 156.936C63.5029 163.064 55.1044 191.413 53.1605 194.133L31.3503 226.828L20.71 219.95C25.4866 210.791 35.5063 191.674 37.3725 188.477Z" fill="#232533"/>
<path d="M31.3503 226.828L20.71 219.95C21.9881 217.499 23.6416 214.335 25.4139 210.955C33.5613 213.798 43.5752 201.714 48.8933 193.185C54.2113 184.656 48.1821 165.228 43.0118 152.671C44.2975 147.692 45.9653 143.225 48.1821 140.114C58.7005 138.326 65.1025 150.808 64.3027 156.936C63.5029 163.064 55.1044 191.413 53.1605 194.133L31.3503 226.828Z" fill="#1E1E2D"/>
<path d="M55.0572 121.035C59.218 121.035 70.6974 121.035 70.6974 121.035L80.208 232.515H69.0442C63.5456 203.428 48.6555 158.798 46.5227 150.539C43.0355 137.034 50.8963 121.035 55.0572 121.035Z" fill="#232533"/>
<path d="M30.6392 166.649C30.6392 166.649 77.5786 165.464 78.5269 157.645C79.4752 149.827 70.6122 116.647 73.8831 104.575C74.0556 103.938 74.2592 103.371 74.4968 102.883C78.6394 95.2229 71.4149 87.9898 71.4149 87.9898C71.4149 87.9898 68.57 84.9097 67.1476 82.0667C66.1416 80.0559 64.6 77.8629 62.4063 77.0916C65.4882 82.5408 61.221 83.4885 54.346 77.3285C50.3943 78.9385 44.7249 84.5432 46.1143 89.2663C46.6952 93.9551 46.991 98.5008 47.0544 102.883C47.0626 103.45 47.0669 104.014 47.0674 104.575C47.1033 141.69 30.6392 166.649 30.6392 166.649Z" fill="#0066FF"/>
<path opacity="0.4" d="M30.6392 166.649C30.6392 166.649 77.5786 165.464 78.5269 157.646C79.193 152.155 75.0188 134.151 73.6085 119.738C71.4149 159.305 46.2857 158.357 36.7316 154.803C33.4416 162.401 30.6392 166.649 30.6392 166.649Z" fill="#98AEFF"/>
<path opacity="0.7" d="M47.0542 102.883C51.2639 106.47 69.044 109.077 74.4966 102.883C74.2591 103.371 74.0554 103.938 73.8829 104.575C68.0957 110.024 53.3975 107.892 47.0672 104.575C47.0667 104.014 47.0624 103.45 47.0542 102.883Z" fill="#0066FF"/>
<path d="M71.4149 87.9898C71.4149 87.9898 68.5701 84.9097 67.1476 82.0667C66.1416 80.0559 64.6 77.8629 62.4063 77.0916C65.2511 82.5408 61.6951 83.4885 54.346 77.3285C50.3943 78.9385 44.7249 84.5432 46.1143 89.2663C46.6952 93.9551 46.991 98.5008 47.0544 102.883C51.2641 106.47 69.0442 109.076 74.4968 102.883C78.6394 95.2229 71.4149 87.9898 71.4149 87.9898Z" fill="#2C74F5"/>
<path d="M54.3458 77.3285C61.6949 83.4888 65.251 82.541 62.4061 77.0916C62.7215 77.2024 63.0233 77.3427 63.3121 77.5076C63.1236 77.3954 68.0007 81.5076 63.5007 83.0076C59.1007 84.2076 54.6672 79.9978 53.0005 77.9929C53.4618 77.728 53.9141 77.5044 54.3458 77.3285Z" fill="#2671E1"/>
<path fill-rule="evenodd" clip-rule="evenodd" d="M84.8898 118.917C84.7849 118.356 85.1552 117.816 85.717 117.711L141.957 107.216C142.518 107.111 143.059 107.482 143.164 108.043C143.269 108.604 142.898 109.145 142.337 109.249L86.0968 119.744C85.5351 119.849 84.9947 119.479 84.8898 118.917Z" fill="#45154F"/>
<path d="M83.0396 114.987C79.4364 114.783 76.6019 113.247 75.6351 112.504L72.2114 118.101C73.8707 118.263 78.0034 119.298 81.2597 122.143C84.516 124.989 88.4302 123.42 89.9803 122.279C91.4755 121.132 88.6752 119.421 87.0881 118.709C86.7709 118.567 86.513 117.458 87.5704 117.596C89.2712 117.954 89.7019 117.148 89.7047 116.701C88.9843 116.214 86.6427 115.191 83.0396 114.987Z" fill="#FEBFAE"/>
<path d="M49.9305 104.687L46.0356 88.3C48.8931 104.339 47.2336 107.182 54.1087 110.973L73.5486 120.213V119.067C68.0792 116.252 58.4419 111.285 55.1679 109.574C51.6144 107.716 50.1957 105.542 49.9305 104.687Z" fill="#0066FF"/>
<path d="M49.9309 104.688L46.0361 88.3004C46.7599 78.04 56.6947 81.3568 58.1394 87.7534C59.1027 92.0186 59.471 96.4118 60.0359 99.1259C60.6008 101.84 62.0834 102.859 62.6437 103.154L77.8164 113.342L75.6827 120.213C70.602 117.599 58.7218 111.431 55.1683 109.574C51.6148 107.717 50.1961 105.542 49.9309 104.688Z" fill="#518FFF"/>
<path d="M70.0005 117.278L73.5939 110.506L74.3385 111.006L70.8561 117.72L70.0005 117.278Z" fill="#0066FF"/>
<path d="M66.0005 115.205L70.2297 108.247L72.2046 109.573L68.1738 116.331C67.4562 115.96 66.7281 115.582 66.0005 115.205Z" fill="#0066FF"/>
<path d="M75.8277 112.006L72.5005 118.571C73.0263 118.843 73.5285 119.102 74.0005 119.346L77.0006 112.794L75.8277 112.006Z" fill="#0066FF"/>
<path d="M62.406 77.0934L62.2969 70.8354L54.4654 69.5032L54.3457 77.3303C56.2191 79.0789 58.3847 80.8855 61.3172 81.6849C64.2498 82.4842 63.9376 79.2517 62.406 77.0934Z" fill="#FEBFAE"/>
<path d="M56.957 69.927L62.297 70.8354L62.3791 75.5422L56.957 69.927Z" fill="#E99D89"/>
<path d="M64.103 71.8335C60.7465 72.6342 54.8198 72.1167 52.6862 68.5623C52.4507 68.1699 51.8822 66.5827 51.5009 66.4303C49.1302 65.4825 46.1786 61.4887 47.9823 59.9864C49.5588 58.6734 56.0933 56.0996 65.0512 53.1157C66.3842 53.7818 68.3327 56.716 68.5698 58.6113C68.9847 61.9285 69.3185 70.5892 64.103 71.8335Z" fill="#FEBFAE"/>
<path d="M61.6994 46.0991C62.9213 46.2101 65.8982 47.1982 68.031 50.2622C69.9017 52.9497 69.1744 56.0899 68.3678 57.7949C67.9609 56.6456 66.7204 54.1102 65.0135 53.1625C63.3541 57.1902 57.6644 59.3225 54.5826 60.2702C53.1602 60.981 55.2938 65.9564 53.8714 65.7195C53.597 64.061 51.5955 59.1804 49.13 59.5594C47.2335 60.0333 46.7593 63.5872 51.7377 66.4302C52.2119 66.9041 52.2119 67.6149 52.8819 68.6161C50.3716 69.9944 47.2893 61.3062 46.2852 62.1656C45.1779 63.1133 44.1706 66.415 44.7038 70.4115C45.237 74.4081 41.8156 77.2945 40.0383 78.2381C38.1499 78.7932 34.8396 79.4704 36.7058 77.7385C39.6473 72.8272 38.6122 69.2733 35.8727 65.4826C35.1507 64.4834 33.7399 61.386 35.8727 57.2562C38.0055 53.1264 42.6488 53.0931 44.7038 53.5927C45.4258 53.9257 46.5261 54.3471 47.703 52.2605C51.7377 45.1071 58.1448 45.3775 61.6994 46.0991Z" fill="#232533"/>
<path d="M44.8633 53.637L47.234 53.1631V62.8774L45.8116 62.6404L44.8633 53.637Z" fill="#04050D"/>
</svg>
