<svg width="22" height="22" viewBox="0 0 22 22" fill="none" xmlns="http://www.w3.org/2000/svg">
<g clip-path="url(#clip0_1_6071)">
<path d="M9.9513 12.0486C8.8788 10.9761 8.0703 9.77526 7.53314 8.55701C7.41947 8.29942 7.48639 7.99784 7.6853 7.79892L8.43605 7.04909C9.05114 6.43401 9.05114 5.56409 8.51397 5.02692L7.4378 3.95076C6.72189 3.23484 5.56139 3.23484 4.84547 3.95076L4.2478 4.54842C3.56855 5.22767 3.2853 6.20759 3.46864 7.17926C3.92147 9.57451 5.31297 12.1971 7.55789 14.442C9.8028 16.6869 12.4254 18.0784 14.8206 18.5313C15.7923 18.7146 16.7722 18.4313 17.4515 17.7521L18.0482 17.1553C18.7641 16.4394 18.7641 15.2789 18.0482 14.563L16.973 13.4878C16.4358 12.9506 15.565 12.9506 15.0287 13.4878L14.201 14.3164C14.0021 14.5153 13.7005 14.5823 13.4429 14.4686C12.2246 13.9305 11.0238 13.1211 9.9513 12.0486Z" stroke="#A2A2A7" stroke-width="1.3" stroke-linecap="round" stroke-linejoin="round"/>
</g>
<defs>
<clipPath id="clip0_1_6071">
<rect width="22" height="22" fill="white"/>
</clipPath>
</defs>
</svg>
