<svg width="18" height="18" viewBox="0 0 18 18" fill="none" xmlns="http://www.w3.org/2000/svg">
<path d="M10.768 7.23223C11.744 8.20853 11.744 9.79153 10.768 10.7678C9.79098 11.7441 8.20901 11.7441 7.23199 10.7678C6.256 9.79153 6.256 8.20853 7.23199 7.23223C8.20901 6.25592 9.79098 6.25592 10.768 7.23223Z" stroke="#8B8B94" stroke-width="1.5" stroke-linecap="round" stroke-linejoin="round"/>
<path fill-rule="evenodd" clip-rule="evenodd" d="M11.8491 1.11996L12.4322 1.31395C12.9662 1.49196 13.3271 1.99196 13.3271 2.55496V3.39196C13.3271 4.10396 13.8951 4.68495 14.6071 4.69996L15.4452 4.71796C15.9301 4.72796 16.3701 5.00695 16.5872 5.44095L16.8621 5.99095C17.1142 6.49496 17.0152 7.10296 16.6172 7.50095L16.0251 8.09296C15.5222 8.59596 15.5131 9.40896 16.0052 9.92296L16.5851 10.529C16.9211 10.88 17.0352 11.387 16.8812 11.848L16.6872 12.431C16.5092 12.965 16.0092 13.326 15.4462 13.326H14.6092C13.8972 13.326 13.3162 13.894 13.3011 14.606L13.2831 15.444C13.2732 15.929 12.9941 16.369 12.5601 16.586L12.0102 16.861C11.5062 17.113 10.8982 17.014 10.5001 16.616L9.90814 16.024C9.40515 15.521 8.59216 15.512 8.07815 16.004L7.47213 16.584C7.12115 16.92 6.61416 17.034 6.15316 16.88L5.57016 16.686C5.03616 16.508 4.67514 16.008 4.67514 15.445V14.608C4.67514 13.896 4.10714 13.315 3.39514 13.3L2.55715 13.282C2.07214 13.272 1.63214 12.993 1.41516 12.559L1.14016 12.009C0.888148 11.505 0.987148 10.897 1.38516 10.499L1.97714 9.90695C2.48016 9.40395 2.48916 8.59095 1.99716 8.07695L1.41714 7.47096C1.08013 7.11895 0.966151 6.61095 1.12014 6.15095L1.31414 5.56796C1.49215 5.03396 1.99215 4.67296 2.55514 4.67296H3.39215C4.10415 4.67296 4.68515 4.10495 4.70016 3.39295L4.71814 2.55496C4.73016 2.06995 5.00814 1.62995 5.44213 1.41295L5.99215 1.13796C6.49615 0.885955 7.10415 0.984955 7.50216 1.38295L8.09414 1.97496C8.59713 2.47796 9.41015 2.48695 9.92416 1.99496L10.5301 1.41496C10.8812 1.07995 11.3892 0.965954 11.8491 1.11996Z" stroke="#8B8B94" stroke-width="1.5" stroke-linecap="round" stroke-linejoin="round"/>
</svg>
